<svg width="759" height="290" viewBox="0 0 759 290" fill="none" xmlns="http://www.w3.org/2000/svg">
<path d="M655.559 286.8V237.6H518.359V182.4L645.159 3.59998H727.159V172H758.359V237.6H727.159V286.8H655.559ZM599.559 172H655.559V87.6L599.559 172Z" fill="#E0D9D0"/>
<path d="M377.469 290C355.869 290 337.602 286.267 322.669 278.8C308.002 271.333 296.135 260.933 287.069 247.6C278.002 234.267 271.469 218.933 267.469 201.6C263.469 184.267 261.469 165.867 261.469 146.4C261.469 126.133 263.602 107.2 267.869 89.6C272.135 71.7333 278.935 56.1333 288.269 42.8C297.602 29.4667 309.735 19.0667 324.669 11.6C339.602 3.86666 357.602 0 378.669 0C400.002 0 418.002 3.86666 432.669 11.6C447.602 19.0667 459.602 29.6 468.669 43.2C478.002 56.5333 484.669 72 488.669 89.6C492.935 106.933 495.069 125.467 495.069 145.2C495.069 165.2 492.935 184 488.669 201.6C484.402 218.933 477.602 234.267 468.269 247.6C459.202 260.933 447.202 271.333 432.269 278.8C417.335 286.267 399.069 290 377.469 290ZM377.469 223.2C388.402 223.2 396.935 220.4 403.069 214.8C409.469 209.2 414.002 202.267 416.669 194C419.602 185.467 421.469 176.8 422.269 168C423.069 159.2 423.469 151.6 423.469 145.2C423.469 139.067 423.069 131.733 422.269 123.2C421.735 114.4 420.135 105.867 417.469 97.6C414.802 89.3333 410.402 82.4 404.269 76.8C398.402 71.2 390.002 68.4 379.069 68.4C368.402 68.4 359.869 71.2 353.469 76.8C347.335 82.1333 342.802 88.9333 339.869 97.2C336.935 105.467 334.935 114 333.869 122.8C333.069 131.333 332.669 138.8 332.669 145.2C332.669 151.333 332.935 158.8 333.469 167.6C334.269 176.4 336.002 185.067 338.669 193.6C341.335 202.133 345.735 209.2 351.869 214.8C358.002 220.4 366.535 223.2 377.469 223.2Z" fill="#E0D9D0"/>
<path d="M137.2 286.8V237.6H0V182.4L126.8 3.59998H208.8V172H240V237.6H208.8V286.8H137.2ZM81.2 172H137.2V87.6L81.2 172Z" fill="#E0D9D0"/>
</svg>
