<svg width="56" height="49" viewBox="0 0 56 49" fill="none" xmlns="http://www.w3.org/2000/svg">
<path d="M32.8554 48.4982V43.8556H48.9833V48.4995M47.5764 43.8556L54.3525 31.238C55.5078 29.3093 55.6208 28.5029 55.4191 27.7438L52.3861 16.3786C52.2704 15.9445 51.9934 15.6169 51.6464 15.417C51.0532 15.0775 50.1736 15.0447 49.6948 15.6485C48.8905 16.6641 48.8098 17.9323 48.8985 19.8478L49.6813 26.8071M45.84 37.2041L50.2516 29.8395C50.908 28.745 50.7129 27.5057 49.9355 26.9597C49.7418 26.8229 49.5105 26.7308 49.2482 26.694C47.9073 26.5072 46.608 27.0374 45.5993 28.7213L42.296 34.2375C39.9113 34.6387 37.6302 35.2478 36.0888 37.7711C34.4156 40.5088 34.7734 43.5372 34.7734 43.5372M23.1446 48.4982V43.8556H7.01673V48.4995M8.4236 43.8556L1.64751 31.238C0.492163 29.3093 0.379183 28.5029 0.580933 27.7438L3.6139 16.3786C3.72957 15.9445 4.00663 15.6169 4.35364 15.417C4.94679 15.0775 5.82641 15.0447 6.30523 15.6485C7.10954 16.6641 7.19024 17.9323 7.10147 19.8478L6.31868 26.8071M10.1613 37.2041L5.74975 29.8395C5.09339 28.745 5.28842 27.5057 6.06582 26.9597C6.2595 26.8229 6.49084 26.7308 6.75311 26.694C8.09407 26.5072 9.39334 27.0374 10.4021 28.7213L13.7054 34.2375C16.0901 34.6387 18.3712 35.2478 19.9125 37.7711C21.5857 40.5088 21.228 43.5372 21.228 43.5372M27.0316 25.7126L23.6678 33.0298L21.4848 28.8634L16.8554 30.05L19.8318 23.5064M28.7384 25.5705L32.1493 33.0298L34.3322 28.8634L39.146 30.4513L36.1238 23.8418M28 7.35649L29.5736 11.4032L33.9946 11.6163L30.5461 14.3303L31.7055 18.5085L28 16.1405L24.2959 18.5085L25.4539 14.3303L22.0054 11.6163L26.4264 11.4032L28 7.35649ZM37.423 13.2818C37.423 18.3721 33.2042 22.4987 28 22.4987C22.7958 22.4987 18.577 18.3721 18.577 13.2818C18.577 8.19147 22.7958 4.06494 28 4.06494C33.2042 4.06494 37.423 8.19147 37.423 13.2818ZM41.3706 13.2818C41.3706 14.2422 40.1978 15.0604 39.9893 15.959C39.7741 16.8865 40.4627 18.1205 40.0498 18.9572C39.6302 19.8083 38.2099 20.0478 37.614 20.7792C37.0142 21.5133 37.0881 22.9196 36.3376 23.5064C35.5912 24.0905 34.2058 23.7077 33.3356 24.1181C32.4802 24.522 31.9247 25.8231 30.9765 26.0336C30.0578 26.2375 28.9832 25.3061 28.0013 25.3061C27.0195 25.3061 25.9448 26.2375 25.0262 26.0336C24.078 25.8231 23.5225 24.522 22.6671 24.1181C21.7969 23.7077 20.4129 24.0892 19.6651 23.5051C18.9146 22.9183 18.9885 21.512 18.3887 20.7779C17.7915 20.0478 16.3725 19.807 15.9529 18.9558C15.54 18.1191 16.2286 16.8851 16.0134 15.9577C15.8049 15.0591 14.6321 14.2408 14.6321 13.2805C14.6321 12.3201 15.8049 11.5018 16.0134 10.6033C16.2286 9.67583 15.54 8.44183 15.9529 7.60513C16.3725 6.75396 17.7928 6.51452 18.3887 5.78307C18.9885 5.04898 18.9146 3.64264 19.6651 3.0559C20.4115 2.47179 21.7969 2.8533 22.6671 2.44416C23.5225 2.04028 24.078 0.739188 25.0262 0.528697C25.9448 0.324784 27.0195 1.25621 28.0013 1.25621C28.9832 1.25621 30.0578 0.324784 30.9765 0.528697C31.9247 0.739188 32.4802 2.04028 33.3356 2.44416C34.2058 2.85462 35.5898 2.4731 36.3376 3.05722C37.0881 3.64396 37.0142 5.0503 37.614 5.78438C38.2112 6.51452 39.6302 6.75527 40.0498 7.60644C40.4627 8.44315 39.7741 9.67715 39.9893 10.6046C40.1978 11.5032 41.3706 12.3214 41.3706 13.2818Z" stroke="#DFD8CF" stroke-linecap="round" stroke-linejoin="round"/>
</svg>
