<svg width="48" height="49" viewBox="0 0 48 49" fill="none" xmlns="http://www.w3.org/2000/svg">
<path d="M10.7524 33.2515C11.4445 32.4241 12.2383 31.8756 12.8605 31.483C12.9939 31.4012 13.1336 31.3155 13.2745 31.2311C13.5577 31.0661 13.8613 30.905 14.1788 30.7529C14.2296 30.7273 14.2575 30.7119 14.3477 30.6557L14.4442 30.5994C14.7223 30.4473 14.9572 30.3245 15.1846 30.2081C15.9935 29.7913 16.6323 29.4627 17.9924 28.2926C20.4562 26.1789 20.8245 25.2212 22.1617 21.0539C22.4424 20.1754 23.0837 19.6921 23.9689 19.6921C24.2572 19.6921 24.5201 19.7432 24.7118 19.779C25.9653 20.0156 26.7641 21.4043 26.8492 23.4988C26.9508 25.9334 26.3945 27.7914 24.9899 29.712L24.694 30.1161H29.0195C30.4089 30.1161 31.5391 31.2554 31.5391 32.653C31.5391 33.355 31.261 34.0072 30.7556 34.4905L30.513 34.7245L30.8013 34.8946C31.5544 35.3396 32.0217 36.1592 32.0217 37.0364V37.1464C32.0217 38.1412 31.4325 39.0363 30.5232 39.4289L30.2019 39.5683L30.4317 39.8304C30.8203 40.2779 31.035 40.8533 31.035 41.4467V41.6116C31.035 42.5579 30.4812 43.4312 29.6278 43.8353L29.3192 43.9798L29.5491 44.2342C29.9529 44.6843 30.1752 45.2674 30.1752 45.8723V46.0551C30.1752 47.4042 29.0856 48.5 27.747 48.5H17.854C14.4531 48.5 12.2294 47.7673 10.8591 46.1945C10.821 46.151 10.7854 46.1075 10.7499 46.0628M19.5697 19.7023L17.3232 21.1907L19.411 13.4392L13.1971 8.40239L21.1635 8.00727L24.0006 0.5L26.8365 8.00727L34.8029 8.40239L28.589 13.4392L30.6768 21.1907L28.7986 19.9747M13.2949 14.466L12.3779 15.2089L13.9895 21.1907L8.83603 17.7996L3.68379 21.1907L5.29537 15.2089L0.5 11.323L6.64788 11.0173L8.83603 5.22353L11.0254 11.0173L12.0744 11.0685M34.7051 14.466L35.6221 15.2089L34.0117 21.1907L39.164 17.7996L44.3162 21.1907L42.7046 15.2089L47.5 11.323L41.3521 11.0173L39.164 5.22353L36.9746 11.0173L35.9256 11.0685M10.0184 48.1253H4.56134V31.359H10.0184C10.3168 31.359 10.5594 31.6032 10.5594 31.9037V47.5806C10.5594 47.8811 10.3168 48.1253 10.0184 48.1253Z" stroke="#DFD8CF" stroke-linecap="round" stroke-linejoin="round"/>
</svg>
