<svg width="48" height="48" viewBox="0 0 48 48" fill="none" xmlns="http://www.w3.org/2000/svg">
<path d="M14.5206 33.393C22.0223 40.8501 35.0634 36.9596 37.1673 26.6594C37.3517 25.7576 37.2857 24.5803 37.5109 23.8026C37.6254 23.4031 37.837 23.3721 38.2096 23.3372C41.1094 23.0734 44.3992 23.5466 47.3417 23.3372C48.1607 23.4458 47.9938 24.5183 47.9705 25.1408C47.9589 25.4647 47.9142 26.0892 47.8696 26.3976C47.7066 27.5166 47.2446 28.0946 46.0781 28.1954C45.6861 28.2303 44.2051 28.0849 44.0343 28.2866C43.9198 28.4223 43.6345 29.7799 43.5278 30.1077C43.0988 31.4381 42.5515 32.6793 41.9032 33.9147C41.713 34.2755 41.0375 35.0396 41.2627 35.4197C41.5208 35.8561 42.437 36.4379 42.7669 36.9247C43.5219 38.0399 42.8834 38.7788 42.1924 39.634C41.5829 40.3885 39.3004 42.7177 38.4775 43.0009C36.9189 43.5361 36.2881 41.8702 35.207 41.1875C33.5378 42.132 31.921 42.9485 30.0868 43.5381C29.7608 43.6428 28.4002 43.9298 28.2643 44.0443C27.8237 44.4128 28.8815 47.0504 27.0803 47.7098C26.2166 48.0259 23.9496 48.0239 22.9714 47.9774C22.3911 47.9502 21.343 47.8921 20.8383 47.6845C19.1478 46.9922 20.1551 44.3992 19.7281 44.0423C19.5922 43.9279 18.2316 43.6409 17.9056 43.5361C16.0772 42.9485 14.4449 42.1339 12.7854 41.1856C11.7043 41.8683 11.0716 43.5361 9.51494 42.9989C8.82009 42.7604 7.0422 41.011 6.47933 40.4079C5.91646 39.8047 4.82955 38.6857 4.87613 37.8401C4.94018 36.6609 6.26971 36.1916 6.73165 35.4158C6.96456 35.0241 6.40364 34.5101 6.22313 34.1688C5.51857 32.8384 4.93047 31.5428 4.46659 30.1057C4.36178 29.7799 4.07452 28.4204 3.96001 28.2846C3.79115 28.0829 2.31022 28.2264 1.91621 28.1935C1.25436 28.1353 0.565328 27.8424 0.29748 27.1927C0.0820368 26.6691 -0.055769 24.5435 0.0218681 23.9675C0.0568048 23.6998 0.169379 23.6106 0.36153 23.4341L10.2544 23.4497C10.6795 23.7192 10.5456 24.8829 10.6057 25.329C11.025 28.399 12.3176 31.2054 14.5206 33.393ZM9.2471 24.6986H1.38634L1.60372 26.7118C2.5179 27.0725 3.83385 26.5275 4.68203 27.0783C5.43511 27.569 5.54769 29.0643 5.82524 29.9118C6.17267 30.9668 6.6579 32.049 7.15866 33.0401C7.70018 34.1106 8.71334 34.9096 7.87292 36.1741C7.50608 36.7249 6.66954 37.2331 6.32988 37.7373C6.26389 37.8362 6.21343 37.8769 6.2503 38.0127C6.28136 38.1291 7.18583 39.155 7.35469 39.3431C7.66136 39.6845 9.81773 41.7693 10.0739 41.7693C11.188 41.0576 11.7722 39.413 13.3793 39.9172C14.0722 40.1344 15.264 41.0285 16.0733 41.395C16.6653 41.6627 17.4106 41.9516 18.0278 42.1572C18.9944 42.4792 20.9218 42.5878 21.1624 43.7766C21.2653 44.2828 21.0246 46.2242 21.3468 46.4297C21.4613 46.5034 22.7132 46.6062 22.9772 46.6198C23.5808 46.6489 24.3223 46.647 24.9259 46.6198C25.2384 46.6062 26.6223 46.517 26.7251 46.356C26.9522 45.9992 26.7407 44.4515 26.8377 43.8736C27.059 42.5548 28.8505 42.5238 29.8966 42.1786C30.9428 41.8333 32.0142 41.3601 33.0273 40.8462C34.0929 40.3051 34.9178 39.3063 36.1639 40.1325C36.7151 40.499 37.2236 41.3349 37.7283 41.6743C37.8272 41.7402 37.868 41.7907 38.0039 41.7538C38.1087 41.7247 39.0656 40.9024 39.2383 40.7473C39.6032 40.4234 41.7615 38.2241 41.7634 37.9332C41.3656 37.2292 40.5174 36.8044 40.0923 36.1101C39.3256 34.8592 40.3058 34.0854 40.8415 33.0381C41.7654 31.2286 42.3321 29.4638 42.8814 27.5127C43.7005 26.3239 45.2532 27.1132 46.3964 26.7098L46.6138 24.6967H38.7531C38.5454 31.7174 32.8158 37.7063 25.8828 38.5519C17.3873 39.5875 9.62946 33.2495 9.25098 24.6967L9.2471 24.6986Z" fill="#DFD8CF"/>
<path d="M27.977 10.9288H34.1395C34.2559 10.9288 34.7489 11.3477 34.6791 11.5533V30.8602C34.5626 31.76 33.3146 31.5215 33.3146 30.8543V12.2864H28.1226L27.977 12.4319V35.7048C27.977 36.114 26.6184 36.2149 26.6184 35.4139V1.4257H21.3779V35.4139C21.3779 36.2149 20.0192 36.114 20.0192 35.7048V13.547L14.6817 17.4743V18.8804H18.0298C18.2258 18.8804 18.5383 19.276 18.5694 19.5049C18.6334 19.9936 18.6354 21.743 18.5577 22.2181C18.5267 22.4101 18.317 22.7573 18.1268 22.7573H14.6817V23.63H18.2239C18.2608 23.63 18.4587 23.8744 18.4898 23.9461C18.6101 24.2274 18.6198 26.4848 18.5577 26.8727C18.5344 27.0143 18.3306 27.4119 18.2239 27.4119H14.6817V31.3392C14.6817 31.7911 13.4744 32.2546 13.3289 31.3334L13.3463 16.908L13.4492 16.6753L19.9998 11.7298L20.0911 0.378423L20.6481 0.0622986C22.7734 0.215512 25.1608 -0.133582 27.2531 0.0603591C27.4957 0.0836321 27.977 0.201936 27.977 0.500606V10.9288ZM17.2049 20.238H14.6817V21.4016H17.2049V20.238ZM17.2049 24.9896H14.6817V26.0562H17.2049V24.9896Z" fill="#DFD8CF"/>
<path d="M34.877 7.32927C35.9523 7.99255 37.3847 8.56856 38.3921 9.29584C38.5881 9.43741 38.757 9.58869 38.8249 9.83305L38.8482 21.8399C38.8792 22.7224 37.5943 22.9124 37.4818 22.0358L37.4391 10.3451L34.122 8.4231C31.9948 10.0289 29.1882 8.46965 29.6482 5.76417C29.7976 4.88368 30.6555 4.073 31.4882 3.82088C33.695 3.15372 35.4244 5.19786 34.877 7.32927ZM32.2956 5.06792C30.3275 5.05822 30.6652 8.1768 32.6178 7.66285C34.089 7.27497 33.8367 5.07568 32.2956 5.06792Z" fill="#DFD8CF"/>
<path d="M9.36743 22.4431C9.2471 22.3326 9.14229 21.9253 9.14423 21.7469C9.41402 18.0329 8.80456 13.8554 9.14423 10.1996C9.17916 9.82336 9.24127 9.49947 9.60034 9.29778L13.1154 7.33121C12.5525 5.12416 14.4022 3.0742 16.6479 3.87324C18.8935 4.67228 18.9964 7.86067 16.8827 8.8168C15.7803 9.31523 14.8273 9.08056 13.8723 8.42698L10.5242 10.4149L10.5068 22.1309C10.4175 22.6099 9.7071 22.7592 9.36937 22.447L9.36743 22.4431ZM15.7007 5.06792C14.1596 5.07568 13.9073 7.27497 15.3785 7.66285C17.3311 8.1768 17.6688 5.05822 15.7007 5.06792Z" fill="#DFD8CF"/>
<path d="M4.70144 17.4414C4.54811 17.6877 4.79461 21.2678 4.66262 22.0087C4.52094 22.8097 3.42237 22.798 3.32144 22.0358C3.14094 20.6666 3.46119 18.9017 3.33115 17.4879C0.326594 16.6268 0.782711 12.1468 3.95807 12.1468C7.13343 12.1468 7.64583 16.5434 4.70144 17.4394V17.4414ZM3.59123 13.5703C2.02685 13.8942 2.5606 16.5318 4.30355 16.1245C5.85435 15.7618 5.54769 13.165 3.59123 13.5703Z" fill="#DFD8CF"/>
<path d="M44.6826 17.4394L44.6671 22.127C44.3041 22.9124 43.4055 22.7204 43.3084 21.8399C43.159 20.4882 43.421 18.8727 43.3143 17.4899C40.76 16.6792 40.6435 12.9322 43.3065 12.234C46.7827 11.3206 48.1336 16.4717 44.6826 17.4394ZM43.5724 13.5684C42.3845 13.8399 42.3884 15.9946 43.8538 16.1594C45.8316 16.3824 45.8763 13.0408 43.5724 13.5684Z" fill="#DFD8CF"/>
<path d="M32.4159 14.445C32.5499 14.571 32.6217 14.9492 32.6392 15.1412C32.7168 16.0081 32.7362 17.9863 32.6353 18.8339C32.5906 19.2179 32.3927 19.4913 31.9967 19.5534C31.657 19.6057 29.3726 19.6038 29.1416 19.5088C28.9514 19.4293 28.7728 19.1403 28.7457 18.9347C28.6428 18.1628 28.6564 15.7405 28.7495 14.9512C28.7728 14.7572 28.8582 14.4585 29.0426 14.3713C29.2464 14.2743 31.5231 14.2859 31.9094 14.3189C32.0705 14.3325 32.2937 14.3325 32.414 14.445H32.4159ZM31.2766 15.6804H30.1121V18.2016H31.2766V15.6804Z" fill="#DFD8CF"/>
<path d="M32.4159 21.9117C32.5499 22.0378 32.6217 22.416 32.6391 22.608C32.7168 23.4749 32.7362 25.4531 32.6353 26.3006C32.5906 26.6846 32.3927 26.9581 31.9967 27.0201C31.657 27.0725 29.3726 27.0705 29.1416 26.9755C28.9514 26.896 28.7728 26.607 28.7456 26.4014C28.637 25.583 28.668 23.3682 28.7456 22.5129C28.7709 22.2433 28.7864 21.9893 29.064 21.8613C29.3415 21.7333 31.4649 21.7488 31.9074 21.7856C32.0685 21.7992 32.2917 21.7992 32.4121 21.9117H32.4159ZM31.2766 23.1471H30.1121V25.6683H31.2766V23.1471Z" fill="#DFD8CF"/>
<path d="M22.9015 18.6108C23.1034 18.5526 24.8929 18.5526 25.0928 18.6108C25.677 18.7815 25.6693 19.7784 24.9958 19.9277C24.6891 19.9956 23.3052 19.9956 23.0005 19.9277C22.3251 19.7784 22.3212 18.7815 22.9035 18.6108H22.9015Z" fill="#DFD8CF"/>
<path d="M23.0005 22.3927C23.3052 22.3248 24.7862 22.3267 25.0715 22.416C25.7139 22.6157 25.6052 23.6184 25.0152 23.727C24.7629 23.7735 23.1189 23.7716 22.9035 23.7095C22.3619 23.5525 22.3154 22.5459 23.0005 22.3927Z" fill="#DFD8CF"/>
<path d="M23.0995 3.29142C23.476 3.22354 24.8036 3.21578 25.1239 3.35542C25.6984 3.60754 25.6169 4.50937 25.0152 4.62379C24.7687 4.67034 23.1131 4.6684 22.9035 4.60634C22.3134 4.43373 22.2843 3.43687 23.1014 3.29142H23.0995Z" fill="#DFD8CF"/>
<path d="M23.0005 10.9502C23.3052 10.8823 24.7862 10.8842 25.0715 10.9734C25.7159 11.1732 25.6538 12.1681 24.9162 12.2806C24.5843 12.331 23.2198 12.333 22.9287 12.2418C22.3095 12.0498 22.3484 11.0937 23.0024 10.9482L23.0005 10.9502Z" fill="#DFD8CF"/>
<path d="M25.3296 8.28346C24.9997 8.6151 22.9966 8.6151 22.6667 8.28346C22.3057 7.91885 22.4939 7.242 22.9811 7.14891C23.2586 7.09654 24.7376 7.09654 25.0132 7.14891C25.5024 7.24006 25.6906 7.91885 25.3277 8.28346H25.3296Z" fill="#DFD8CF"/>
<path d="M25.3296 14.9318C25.6906 15.2964 25.5024 15.9732 25.0152 16.0663C24.7376 16.1187 23.2586 16.1187 22.983 16.0663C22.4939 15.9752 22.3057 15.2964 22.6686 14.9318C22.9986 14.6001 25.0016 14.6001 25.3316 14.9318H25.3296Z" fill="#DFD8CF"/>
</svg>
