<svg width="52" height="49" viewBox="0 0 52 49" fill="none" xmlns="http://www.w3.org/2000/svg">
<path d="M11.1209 40.5011H6.28826C3.09176 40.5011 0.5 37.8676 0.5 34.6197V22.4962M5.81043 40.5011V47.9961M2.78139 48.5H8.83948M40.8791 40.5011H45.7117C48.9082 40.5011 51.5 37.8676 51.5 34.6197V22.4962M46.1896 40.5011V47.9961M49.2197 48.5H43.1605M14.8816 30.8257H37.1184M26.0005 30.8257V48.5M26.0005 4.35695C23.0621 4.35695 20.6794 6.77689 20.6794 9.76361C20.6794 10.6804 20.9098 11.5496 21.2021 12.4079C21.4815 13.2283 21.9796 13.9457 22.435 14.6718C22.5641 14.8766 22.6899 15.0836 22.8083 15.2949C23.1859 15.969 23.4696 16.6831 23.6914 17.4233C23.8439 17.9327 24.1106 18.4908 24.7132 18.4908H27.2868C27.8894 18.4908 28.155 17.9327 28.3086 17.4233C28.5304 16.6831 28.8141 15.969 29.1917 15.2949C29.3101 15.0836 29.4359 14.8777 29.565 14.6718C30.0204 13.9457 30.5185 13.2283 30.7979 12.4079C31.0902 11.5496 31.3206 10.6804 31.3206 9.76361C31.3206 6.77797 28.9389 4.35695 25.9995 4.35695M27.5556 19.7761H24.4455M27.2921 21.1426H24.7079M26.0005 2.20144V0.5M30.9377 4.28001L32.1216 3.076M32.9833 9.29653H34.6579M21.0623 4.28001L19.8784 3.076M19.0177 9.29653H17.3421M23.4664 10.9394C23.4664 12.3613 24.6001 13.5133 25.9995 13.5133C27.3988 13.5133 28.5326 12.3613 28.5326 10.9394M26.0005 13.5133V16.5141M9.34732 14.6884C10.5573 15.9179 10.5573 17.9112 9.34732 19.1406C8.13733 20.3701 6.17554 20.3701 4.96555 19.1406C3.75556 17.9112 3.75556 15.9178 4.96555 14.6884C6.17554 13.459 8.13733 13.459 9.34732 14.6884ZM9.99031 27.0045V33.2358L14.7931 34.8224C15.2421 34.9709 15.6026 35.3166 15.7732 35.7642L19.8294 46.3802C20.0395 46.9297 19.7771 47.5496 19.2406 47.7728L17.6856 48.4187C17.1416 48.6452 16.5209 48.3797 16.298 47.827L12.6205 38.6891L7.07645 38.3976C4.65108 38.2697 2.74939 36.2345 2.74939 33.7679V24.7731C2.74939 22.9492 4.041 21.9706 5.56406 21.6065C7.01352 21.2608 8.53978 21.5328 9.82819 22.2914L13.8363 24.6517L19.6267 24.7547C20.6218 24.7547 21.4282 25.574 21.4282 26.5851C21.4282 27.5962 20.6218 28.4155 19.6267 28.4155L13.8982 28.4989L9.99031 27.0045ZM47.8601 16.1939C48.2532 17.8862 47.2217 19.5817 45.5563 19.9811C43.8909 20.3805 42.2221 19.3325 41.829 17.6403C41.436 15.9481 42.4674 14.2525 44.1328 13.8531C45.7983 13.4537 47.467 14.5017 47.8601 16.1939ZM42.0108 27.0045V33.2358L37.208 34.8224C36.759 34.9709 36.3985 35.3166 36.2278 35.7642L32.1717 46.3802C31.9616 46.9297 32.2239 47.5496 32.7604 47.7728L34.3155 48.4187C34.8594 48.6452 35.4802 48.3797 35.7031 47.827L39.3806 38.6891L44.9246 38.3976C47.35 38.2697 49.2517 36.2345 49.2517 33.7679V24.7731C49.2517 22.9492 47.9601 21.9706 46.437 21.6065C44.9875 21.2608 43.4613 21.5328 42.1729 22.2914L38.1647 24.6517L32.3743 24.7547C31.3792 24.7547 30.5729 25.574 30.5729 26.5851C30.5729 27.5962 31.3792 28.4155 32.3743 28.4155L38.1029 28.4989L42.0108 27.0045Z" stroke="#DFD8CF" stroke-linecap="round" stroke-linejoin="round"/>
</svg>
