<svg width="65" height="48" viewBox="0 0 65 48" fill="none" xmlns="http://www.w3.org/2000/svg">
<path d="M51.3187 6.53403H56.7737C56.9791 6.53403 57.3661 7.07104 57.3661 7.26151V13.2691H62.9528C63.1871 13.2691 63.2688 13.7929 63.2898 13.9886C63.4267 15.3695 63.4662 19.2767 63.2898 20.6047C63.2661 20.7793 63.1213 21.192 62.9555 21.192H57.3687V26.7366H62.9555C63.1898 26.7366 63.2714 27.2604 63.2924 27.4562C63.4294 28.837 63.4688 32.7442 63.2924 34.0722C63.2688 34.2468 63.124 34.6595 62.9581 34.6595H57.3714V40.0719H62.9581C63.124 40.0719 63.2688 40.4845 63.2924 40.6591C63.532 42.4474 63.0845 44.7436 63.3056 46.5874L63.5031 46.7858C64.3087 46.7858 65.3618 46.6641 64.8774 47.8069L64.2824 48L0.511675 47.9894C-0.720456 47.1799 0.532737 46.5874 1.54108 46.7858L1.73854 46.5874C1.95706 44.7409 1.50949 42.4448 1.7517 40.6591C1.7754 40.4845 1.9202 40.0719 2.08607 40.0719H7.67278V34.6595H2.0808C2.0571 34.6595 1.7517 34.3526 1.7517 34.3288V26.935L1.94916 26.7366H7.66751V21.192H2.0808C1.84648 21.192 1.76487 20.6682 1.74381 20.4724C1.6069 19.0915 1.56741 15.1843 1.74381 13.8564C1.7675 13.6818 1.9123 13.2691 2.07817 13.2691H7.66488V7.26151C7.66488 7.07104 8.0519 6.53403 8.25725 6.53403H13.7123V0.396804C13.7123 0.359769 13.9151 0.037035 13.9756 0H51.0527C51.1107 0.037035 51.316 0.359769 51.316 0.396804V6.53668L51.3187 6.53403ZM25.8125 1.12163H15.0313V6.53403H25.8125V1.12163ZM27.1289 1.12163V6.53403H37.91V1.12163H33.1763V4.3569C33.1763 4.94417 31.8626 4.94417 31.8626 4.3569V1.12163H30.5488V3.03687C30.5488 3.70879 29.2351 3.7908 29.2351 3.30141V1.12163H27.1289ZM45.7319 1.12163H39.2238V6.53403H50.0049L49.9996 5.88063C47.3801 5.65048 47.2195 2.74059 45.7319 1.12163ZM50.0049 1.12163H47.3748C48.1988 2.22739 48.47 4.31193 50.0049 4.5553V1.12163ZM19.765 7.85671H8.98389V13.2691H19.765V7.85671ZM31.8599 7.85671H21.0788V13.2691H31.8599V7.85671ZM43.9575 7.85671H33.1763V13.2691H43.9575V7.85671ZM56.0524 7.85671H45.2712V13.2691H56.0524V7.85671ZM13.7176 14.5891H2.93645V20.0015H13.7176V14.5891ZM25.8125 14.5891H15.0313V20.0015H25.8125V14.5891ZM37.91 14.5891H27.1289V20.0015H37.91V14.5891ZM50.0049 14.5891H39.2238V20.0015H50.0049V14.5891ZM62.0998 14.5891H51.3187V20.0015H62.0998V14.5891ZM19.765 21.1893H9.18135L8.98389 21.3877V26.5356L9.18135 26.734H19.765V21.1893ZM31.8599 21.1893H21.0788V26.734H31.8599V21.1893ZM43.9575 21.1893H33.1763V26.734H43.9575V21.1893ZM45.2712 26.7366H55.8549L56.0524 26.5382V21.3904L55.8549 21.192H45.2712V26.7366ZM13.7176 27.9244H2.93645V33.3368H13.7176V27.9244ZM25.8125 27.9244H15.0313V33.3368H25.8125V27.9244ZM37.91 27.9244H27.1289V33.3368H37.91V27.9244ZM50.0049 27.9244H39.2238V33.3368H50.0049V27.9244ZM62.0998 27.9244H51.3187V33.3368H62.0998V27.9244ZM19.765 34.6568H8.98389V40.0692H19.765V34.6568ZM31.8599 34.6568H21.0788V40.0692H31.8599V34.6568ZM43.9575 34.6568H33.1763V40.0692H43.9575V34.6568ZM56.0524 34.6568H45.2712V40.0692H56.0524V34.6568ZM13.7176 41.3919H2.93645V46.8043H13.7176V41.3919ZM25.8125 41.3919H15.0313V46.8043H25.8125V41.3919ZM37.91 41.3919H27.1289V46.8043H37.91V41.3919ZM50.0049 41.3919H39.2238V46.8043H50.0049V41.3919ZM62.0998 41.3919H51.3187V46.8043H62.0998V41.3919Z" fill="#E0D9D0"/>
<path d="M29.3957 4.06062C30.1144 3.3305 31.0885 4.97063 30.1539 5.54731C29.164 6.03406 28.9823 4.48123 29.3957 4.06062Z" fill="#E0D9D0"/>
</svg>
