<svg width="46" height="47" viewBox="0 0 46 47" fill="none" xmlns="http://www.w3.org/2000/svg">
<path d="M42.6566 42.2192V26.2039C42.6566 25.7168 43.304 25.3326 43.7565 25.6561C43.8264 25.7057 44.0342 25.9686 44.0342 26.0201V42.2192C44.873 42.074 45.857 42.5519 45.9655 43.4562C46.0207 43.9157 46.0188 45.6637 45.8919 46.0498C45.719 46.5791 45.0219 47.046 44.4518 46.9964L1.28538 46.9835C0.803483 46.9357 0.200194 46.4449 0.0806403 45.9854C-0.0186815 45.6049 -0.0205208 43.7907 0.0438544 43.3735C0.172605 42.5427 1.18973 42.0684 1.96592 42.221V26.0219C1.96592 25.6267 2.80831 25.3657 3.13755 25.7241C3.1633 25.7517 3.34539 26.18 3.34539 26.2057V42.221H5.50472L5.64266 42.0831V3.99418C5.64266 3.78831 6.38942 3.53649 6.60461 3.57877H39.3109C39.539 3.51995 40.363 3.76993 40.363 3.99418V42.0813L40.5009 42.2192H42.6603H42.6566ZM36.6863 4.95734H9.31389L16.9102 8.60963C17.2118 8.82101 17.5631 9.09856 17.5834 9.49743L17.576 39.4142L17.2523 40.0079L11.7933 42.2173H34.2051L29.2132 40.2763C28.7902 40.1219 28.5198 39.8646 28.4242 39.4124L28.4168 9.49743C28.437 9.09856 28.7883 8.82101 29.09 8.60963L36.6863 4.95734ZM6.92649 42.2192L8.01167 42.1567C10.4671 41.1347 13.0348 40.3664 15.4921 39.3517C15.6944 39.269 16.2223 39.1183 16.2811 38.9474L16.2517 9.82277L6.92649 5.4187V42.221V42.2192ZM39.0737 5.41686L29.7484 9.82093L29.719 38.9455C29.7779 39.1165 30.3057 39.2672 30.5081 39.3499C32.9635 40.3645 35.533 41.1347 37.9885 42.1548L39.0737 42.2173V5.41686ZM44.678 43.5959C44.5879 43.6253 44.4793 43.504 44.4481 43.504H1.55391C1.52265 43.504 1.41413 43.6253 1.324 43.5959V45.4781L1.46195 45.616H44.54L44.678 45.4781V43.5959Z" fill="#E0D9D0"/>
<path d="M3.34355 22.9909C3.20008 23.807 2.06892 23.8566 1.96224 22.9945V1.69656C2.0119 0.922723 2.52874 0.27939 3.26997 0.0661714L42.3402 0C43.2636 0.0606571 43.9791 0.775675 44.0398 1.6984L43.9956 23.228C43.8411 23.6397 43.2856 23.8493 42.9362 23.5423C42.87 23.4835 42.6584 23.0479 42.6584 22.9945V1.51643L42.5205 1.37857H3.48149L3.34355 1.51643V22.9927V22.9909Z" fill="#E0D9D0"/>
<path d="M37.4808 39.6164C37.2068 39.8903 36.8573 39.8682 36.5023 39.7874C35.7409 39.6127 32.6987 38.3775 31.9685 37.986C31.7606 37.8739 31.5767 37.7875 31.4939 37.5431L31.4516 25.3767C31.459 25.0845 31.6392 24.8382 31.9078 24.7315C33.4785 24.8124 35.2902 24.4246 36.826 24.5992C37.2105 24.6433 37.4955 24.7738 37.6574 25.1451L37.674 39.3076C37.6243 39.4142 37.5654 39.5355 37.4827 39.6183L37.4808 39.6164ZM36.4104 25.9741H32.7355V36.896L36.4104 38.2728V25.9741Z" fill="#E0D9D0"/>
<path d="M36.7561 8.55449C37.1332 8.46074 37.4459 8.71072 37.6261 9.01952L37.6556 23.1342C37.5011 23.4522 37.2748 23.6397 36.918 23.682C35.8972 23.8015 33.5539 23.7721 32.5037 23.682C32.0439 23.6434 31.516 23.5276 31.4461 22.9945L31.47 11.3539C31.573 11.1554 31.7551 11.023 31.939 10.9036C33.3204 10.0084 35.2829 9.35222 36.758 8.55265L36.7561 8.55449ZM36.4104 10.2805L32.7355 12.0708V22.3034H36.4104V10.2805Z" fill="#E0D9D0"/>
<path d="M8.52116 39.6164C8.43839 39.5337 8.37953 39.4124 8.32987 39.3058L8.34643 25.1433C8.50828 24.772 8.79337 24.6415 9.17779 24.5974C10.7154 24.4227 12.5271 24.8106 14.0961 24.7297C14.3646 24.8363 14.5448 25.0826 14.5522 25.3749L14.5099 37.5412C14.4271 37.7857 14.2432 37.8721 14.0354 37.9842C13.3052 38.3757 10.263 39.6127 9.5015 39.7855C9.14652 39.8664 8.79705 39.8885 8.523 39.6146L8.52116 39.6164ZM13.2647 25.9741H9.58979V38.2728L13.2647 36.896V25.9741Z" fill="#E0D9D0"/>
<path d="M8.92212 8.55265C9.20354 8.49567 9.40218 8.60963 9.65048 8.70521C10.7375 9.12062 13.0127 10.2566 14.0004 10.8742C14.2083 11.0047 14.4124 11.126 14.5301 11.3557L14.554 22.9964C14.4841 23.5294 13.9544 23.6434 13.4964 23.6838C12.4462 23.7739 10.103 23.8033 9.08214 23.6838C8.72532 23.6416 8.49909 23.4541 8.34459 23.1361L8.30228 9.3173C8.2986 9.00298 8.62416 8.61514 8.92396 8.55449L8.92212 8.55265ZM13.2647 22.3034V12.0708L9.58979 10.2805V22.3034H13.2647Z" fill="#E0D9D0"/>
</svg>
