<svg width="38" height="50" viewBox="0 0 38 50" fill="none" xmlns="http://www.w3.org/2000/svg">
<path d="M7.09061 19.1623H10.3476C10.6005 18.8162 10.7037 18.4421 10.9768 18.0861C12.3464 16.2857 15.1482 16.1137 16.627 17.876C16.8759 18.1721 17.2076 18.9682 17.331 19.0762C17.6163 19.3283 20.0014 19.1042 20.5496 19.1583C20.8713 18.8182 20.9886 18.3641 21.2819 17.984C23.0157 15.7416 26.6712 16.4397 27.5492 19.0802L30.8588 19.0602C31.3079 18.2381 31.6882 17.596 32.5359 17.1219C34.9716 15.7656 37.8564 17.3919 38 20.1184V43.0969C37.47 47.9618 30.6525 47.5277 30.7213 42.6428L27.8526 42.6368C27.6281 43.851 27.5067 44.8452 26.479 45.6894C23.9847 47.7397 20.321 45.8914 20.5172 42.7408H17.4848C17.677 45.8674 14.0821 47.7097 11.5776 45.7354C10.5762 44.9452 10.3375 43.963 10.1959 42.7548L7.27875 42.7408C7.24233 47.5597 0.513842 47.8998 0 43.0949L0.030345 19.7464C0.612969 15.9596 5.92334 15.5196 7.09061 19.1583V19.1623ZM3.60701 17.916C2.41951 17.936 1.37968 18.9482 1.31293 20.1204L1.31899 43.0949C1.73573 46.0554 5.73722 45.9894 5.96987 42.9008C6.40886 37.1017 5.62798 30.7685 5.96987 24.9134C5.64821 23.257 6.05281 21.3667 5.86467 19.7244C5.74734 18.7082 4.59625 17.9 3.60701 17.916ZM13.896 17.934C12.2331 17.934 11.612 19.1603 11.5169 20.6205C11.0435 27.8279 11.879 35.5374 11.523 42.7968C11.5675 45.7934 15.6803 46.1794 16.1739 43.2029L16.1698 19.9264C15.9695 18.7742 15.1138 17.936 13.896 17.936V17.934ZM24.102 17.934C22.8842 17.934 22.0284 18.7722 21.8282 19.9244L21.8241 43.2009C22.3177 46.1734 26.4365 45.8034 26.475 42.7948C26.1189 35.5354 26.9544 27.8259 26.481 20.6185C26.386 19.1583 25.7649 17.934 24.102 17.932V17.934ZM34.3242 17.916C33.1165 17.936 32.1272 18.9502 32.0342 20.1244L32.0281 42.8988C32.1596 45.9054 36.2946 46.0834 36.679 43.0929L36.6851 20.1184C36.6183 18.9242 35.536 17.894 34.3222 17.914L34.3242 17.916ZM20.5152 41.4485V20.5245C20.3756 20.2965 20.2988 20.4745 20.2624 20.4745H17.4828V41.4485H20.5152ZM30.7192 20.3745H27.7899V41.3485H30.7192V20.3745ZM10.208 20.4745H7.27875V41.4485H10.208V20.4745Z" fill="#E0D9D0"/>
<path d="M19.4795 0.0185862C20.0601 -0.0934353 20.4566 0.34865 20.2704 0.904756C20.1855 1.16081 18.9312 1.76892 18.5509 2.30502C17.0215 4.45544 19.5098 6.27179 20.495 7.96011C21.1747 9.12433 21.547 10.4866 20.9704 11.7868C20.7499 12.2829 19.9144 13.3191 19.3581 12.681C18.8017 12.0429 19.7708 11.5288 19.8861 10.9127C20.4181 8.06413 16.2609 6.48583 16.801 3.06917C16.9709 1.99497 18.385 0.228627 19.4795 0.0165858V0.0185862Z" fill="#E0D9D0"/>
<path d="M26.4507 0.0185862C26.916 -0.0734314 27.3691 0.360652 27.2437 0.800736C27.1183 1.24082 26.1149 1.58889 25.7244 2.00497C23.5922 4.2834 26.653 6.36781 27.624 8.30218C28.1885 9.42839 28.4231 10.5486 27.9073 11.7548C27.6868 12.2709 26.8189 13.4172 26.2646 12.643C25.8519 12.0669 26.5033 11.6888 26.6955 11.2567C27.9963 8.31418 22.3299 6.20377 24.0009 2.30102C24.3609 1.46286 25.5262 0.202622 26.4487 0.0205866L26.4507 0.0185862Z" fill="#E0D9D0"/>
<path d="M12.5082 0.0185862C13.1111 -0.097436 13.5035 0.344649 13.3214 0.928761C13.2587 1.1308 12.3545 1.55888 12.0813 1.80093C8.69687 4.8015 15.4274 7.47802 14.1549 11.4408C13.9648 12.0349 13.2446 13.3591 12.4799 12.685C11.8285 12.1109 12.929 11.3948 13.0139 10.6066C13.3154 7.83609 8.58965 5.98773 10.1049 2.34303C10.4225 1.58089 11.6808 0.176617 12.5082 0.0185862Z" fill="#E0D9D0"/>
<path d="M5.78578 47.3657C7.16748 46.5855 6.71838 48.4859 7.53365 48.6379C7.93825 48.7139 10.6572 48.7039 11.0456 48.6199C11.5877 48.4999 11.6909 47.1056 12.5911 47.7357C13.4165 48.3139 12.1339 49.7321 11.3268 49.8962C10.6592 50.0322 8.15066 50.0242 7.43856 49.9322C6.22274 49.7741 5.33869 48.5259 5.78578 47.3677V47.3657Z" fill="#E0D9D0"/>
<path d="M31.5001 47.2617C32.8414 46.9656 32.3134 48.846 31.6781 49.4381C31.4394 49.6601 30.8851 49.8882 30.5594 49.9302C29.8493 50.0222 27.3408 50.0302 26.6712 49.8942C25.3421 49.6241 24.4641 47.5037 25.9207 47.6337C26.5782 47.6917 26.299 48.4759 26.9524 48.6199C27.3449 48.7059 30.0577 48.7139 30.4643 48.6399C31.1865 48.5059 30.8507 47.4077 31.5001 47.2657V47.2617Z" fill="#E0D9D0"/>
</svg>
