<svg width="47" height="47" viewBox="0 0 47 47" fill="none" xmlns="http://www.w3.org/2000/svg">
<path d="M24.5134 18.0967C19.345 8.97755 27.2342 -1.89904 37.5304 0.282707C47.3545 2.36587 50.3658 15.2442 42.4873 21.5172C41.3404 22.4302 40.1316 22.9982 38.8118 23.6047L47 34.7492C46.968 35.3364 46.3358 35.2035 45.9193 35.4457C45.2018 35.8615 45.1163 36.6395 43.9545 36.6845C42.5044 36.7423 41.9961 35.2293 41.1012 35.2293C40.3559 35.2293 39.948 36.1422 39.3308 36.4337C38.3911 36.8773 37.6243 36.6759 36.8363 36.0672C36.4027 35.7329 36.2233 35.2207 35.5506 35.2314C34.6002 35.2485 34.2051 36.7402 32.7016 36.6823C31.4437 36.6352 30.976 35.21 30.0042 35.2314C29.0325 35.2528 28.6395 36.7466 27.2428 36.7016C26.0041 36.6609 25.5748 35.4243 24.7846 35.315L0.450629 35.3257C0.181533 35.345 0.0597992 35.1671 0 34.9271L12.4041 18.0946H24.5112L24.5134 18.0967ZM33.6669 1.01138C26.2924 1.72292 21.8545 9.75767 24.744 16.5322C28.3469 24.9806 40.3388 25.5143 44.6956 17.4216C49.0075 9.40833 42.6048 0.147687 33.6669 1.01138ZM13.6342 19.0612L16.1458 22.5888C16.496 22.7731 16.8762 22.7881 17.2307 22.9982C17.6429 23.2404 17.9696 23.8147 18.3733 23.9905C19.5757 24.5134 19.8939 23.1761 20.84 22.8096L20.8827 22.6553L18.1683 19.0633H13.6342V19.0612ZM23.7146 19.0612H19.3941L22.0125 22.6938C22.8881 22.8524 23.4413 24.1019 24.2486 24.0998C25.152 24.0998 25.5983 22.9575 26.4334 22.7539L23.7146 19.0612ZM30.7005 23.3411C29.3336 22.8867 28.0437 22.1002 26.9651 21.1486C26.318 20.5785 25.8525 19.9099 25.2822 19.3055C25.1776 19.1962 25.1754 19.0033 24.9405 19.0612L27.608 22.7517C28.4986 23.1439 28.8744 24.3248 29.9871 24.0655C30.1943 24.0183 30.8265 23.5125 30.7026 23.3411H30.7005ZM23.768 34.4663L12.6198 19.3826L1.47149 34.4663H3.44486L12.1392 22.7517C12.3421 22.4324 12.6646 22.4045 12.9615 22.6231L21.7925 34.4663H23.768ZM25.2609 28.6883L21.5619 23.6733C20.9788 23.4782 20.2078 24.6806 19.7124 24.8927C19.0823 25.1606 18.5142 25.0599 17.8992 24.8392L20.6734 28.6347C21.658 28.6604 22.1898 29.5584 23.1786 29.5541C24.0222 29.552 24.46 28.8255 25.2587 28.6883H25.2609ZM30.8072 28.6883C30.284 28.0882 27.4713 23.804 27.1082 23.6776C26.3864 23.4247 25.987 24.2905 25.5257 24.6227C25.0281 24.9828 24.4835 25.1092 23.8727 25.0513L26.3885 28.5726C27.2535 28.9926 27.892 29.6934 28.915 29.5177C29.607 29.3998 30.0619 28.6733 30.8072 28.6861V28.6883ZM20.4599 34.4663L12.6198 23.7697L4.77966 34.4663H20.462H20.4599ZM36.0354 28.6883L32.5094 23.9369C31.6103 23.4332 31.3412 24.5027 30.5616 24.8584C30.1815 25.032 29.844 25.0942 29.4233 25.0535L31.984 28.6369C32.7742 29.0869 33.3722 29.7256 34.361 29.522C34.8907 29.4127 35.4545 28.7676 36.0375 28.6904L36.0354 28.6883ZM34.5426 25.0535L37.0968 28.534C37.7119 28.7419 38.4808 29.4877 39.0745 29.5477C40.0313 29.6463 40.5673 29.0076 41.3682 28.6347L37.8507 23.924C36.8 23.639 36.5138 24.7534 35.5912 24.9763C35.2281 25.0642 34.912 25.0663 34.5447 25.0513L34.5426 25.0535ZM29.4169 34.462L26.0062 29.5991C25.3121 29.3548 24.7974 30.0385 24.2357 30.2828C23.422 30.6364 22.7749 30.525 21.9548 30.2957L24.7868 34.2477C26.0895 34.492 26.6875 36.4637 28.0864 35.4307C28.5135 35.1157 28.7847 34.5327 29.4169 34.4641V34.462ZM27.8216 30.4007L30.6556 34.3505C31.4031 34.567 32.0331 35.7458 32.7785 35.7543C33.6242 35.7629 34.2713 34.5584 35.0722 34.3055C34.4165 33.7933 31.8751 29.6956 31.4821 29.5606C30.6193 29.2627 28.9834 31.1487 27.8216 30.4007ZM36.281 34.432C36.4412 34.5756 36.8128 34.7127 37.0456 34.8971C37.4727 35.2335 37.6777 35.7522 38.3291 35.7522C39.0403 35.7522 39.6597 34.7277 40.3004 34.4127C39.7536 33.8962 36.8897 29.5734 36.5223 29.552C35.9521 29.5177 35.3605 30.1949 34.7775 30.3707C34.3375 30.5036 33.9339 30.5378 33.4747 30.5078C33.4277 30.6686 33.526 30.69 33.5751 30.78C33.8399 31.2644 35.9286 34.1191 36.281 34.432ZM42.0943 29.5648C41.4793 29.4448 41.0649 29.9785 40.5865 30.2057C39.8519 30.555 39.2752 30.5378 38.4872 30.4543L41.3105 34.2562C42.6496 34.402 43.2626 36.4787 44.6208 35.4307C44.954 35.1735 45.1313 34.6763 45.6268 34.5627V34.432L42.0943 29.5648Z" fill="#E0D9D0"/>
<path d="M26.7195 38.1204C27.3304 37.9125 28.6908 39.0805 29.5814 39.0762C30.7496 39.072 31.1084 37.6467 33.0711 38.2404C33.5815 38.3947 34.0492 38.8491 34.4635 38.9841C35.9478 39.4749 36.6868 37.8954 38.1988 38.1204L43.5872 45.3514L43.5957 45.7351C43.4889 46.0608 42.577 46.0458 42.2246 46.183C41.6907 46.3909 41.3554 46.8795 40.6677 46.9738C39.1236 47.186 38.6174 46.0394 37.477 46.0115C36.3365 45.9837 35.6382 47.0317 34.5062 46.9738C33.5174 46.9245 32.8639 46.1058 31.9242 45.9172C30.0341 43.5083 28.0928 41.0694 26.459 38.4954C26.4996 38.3518 26.57 38.1697 26.7217 38.1182L26.7195 38.1204ZM28.569 39.8178C28.49 39.8949 29.2311 40.8829 29.3336 41.0287C30.0512 42.0402 31.3796 44.1363 32.189 44.9057C32.2659 44.9785 33.9083 45.8701 34.0556 45.9215C35.2345 46.3437 36.1422 45.0364 37.4706 45.0578C38.6367 45.075 39.3671 46.1401 40.4648 46.0265C41.0543 45.9644 41.648 45.3236 42.2246 45.1114L37.8507 39.117C37.1331 39.0205 36.7615 39.5499 36.1806 39.8006C34.0449 40.7243 33.3124 38.6197 31.6039 39.1684C31.1938 39.2991 30.8969 39.6806 30.4591 39.8392C29.7736 40.09 29.2503 40.0471 28.5712 39.8178H28.569Z" fill="#E0D9D0"/>
<path d="M41.8658 18.9154C36.612 24.3077 27.3197 21.7637 25.5278 14.4598C23.6484 6.80009 31.0763 0.194837 38.438 3.00882C44.9156 5.48633 46.7138 13.939 41.8658 18.9154ZM41.1183 5.83138C34.2756 -0.973191 22.9223 6.87724 26.9822 15.7821C28.7356 19.6291 33.4875 21.9373 37.5282 20.3964L35.9713 17.6702C35.8218 17.0937 36.3622 17.1259 36.3429 16.888C36.1379 16.5922 35.6318 15.3813 35.3926 15.2635C35.2196 15.1799 35.0145 15.2313 34.801 15.107C34.4443 14.9013 33.6904 13.5789 33.3658 13.4353C32.4816 13.774 32.8554 13.7011 32.8105 14.2798C32.7998 14.4105 32.7336 14.4855 32.6461 14.5712C32.4944 14.7191 30.2733 16.0029 30.0299 16.0886C29.8419 16.155 29.6988 16.215 29.4938 16.155C29.182 16.0629 27.1339 12.2095 26.8477 11.6244C26.8306 11.4829 26.8819 11.4079 26.9673 11.305C27.0677 11.185 29.4319 9.8091 29.6604 9.72766C29.9978 9.60764 30.2904 9.53049 30.3951 9.94841H30.6214C33.9018 8.26816 36.9922 4.96125 40.8044 7.48162C41.5028 7.9424 42.7009 9.27117 42.9187 10.0706C43.301 11.4808 41.3703 10.377 40.7723 10.2977C39.8689 10.1777 38.5811 10.2742 37.8614 10.8871C37.8037 11.1314 38.5534 12.6338 38.5683 13.0346C38.5769 13.2467 38.3462 13.3839 38.3975 13.6304C38.4124 13.7075 39.0916 14.8691 39.1855 14.9891C39.5123 15.4049 39.76 14.9141 40.1487 15.1992C40.4669 15.4328 41.1333 17.1173 41.5326 17.5567C41.6843 17.7238 41.6544 17.6381 41.7953 17.5095C42.0538 17.278 42.6026 16.3672 42.7713 16.0286C44.45 12.6767 43.7666 8.46533 41.1141 5.82923L41.1183 5.83138ZM41.3682 9.42976C41.4921 9.32046 40.6826 8.56178 40.5652 8.46962C38.7755 7.06799 37.163 7.33802 35.2858 8.30459C33.9253 9.00327 32.5008 9.91412 31.1554 10.6857C31.0593 10.7414 30.993 10.6707 31.0187 10.8678C31.0443 11.065 32.125 12.9231 32.2446 12.9338C35.2025 11.6051 37.8443 8.64965 41.3661 9.42976H41.3682ZM31.6572 14.134L29.8462 10.7157L28.0415 11.6865C27.8814 11.9116 29.6561 14.6655 29.8996 15.0984L31.6572 14.134ZM34.2222 12.8567C34.141 12.9681 35.0637 13.9904 35.2516 14.1276L37.5047 12.8053L36.9367 11.3586L34.2222 12.8567ZM37.477 13.9368C37.2506 14.104 36.3045 14.5155 36.2618 14.7427L37.2591 16.4829L38.4808 15.6771L37.477 13.9368ZM39.6105 16.1743L37.1118 17.7367L38.5427 20.1049C38.7648 20.122 40.9048 18.6411 40.9368 18.4589L39.6127 16.1743H39.6105Z" fill="#E0D9D0"/>
</svg>
