<svg width="162" height="105" viewBox="0 0 162 105" fill="none" xmlns="http://www.w3.org/2000/svg">
<path d="M81.809 45.3949C74.2789 45.3949 66.9056 41.653 62.5919 34.8273C59.3532 29.7017 58.3034 23.6211 59.6387 17.7057C60.9711 11.7903 64.5262 6.74872 69.6517 3.50812C80.2246 -3.18312 94.2686 -0.0153535 100.953 10.5663C101.048 10.7091 103.587 14.5463 103.587 17.7701H101.961C101.961 15.0421 99.6124 11.4878 99.59 11.4514C96.5724 6.67589 91.8948 3.37368 86.4054 2.1329C80.916 0.894924 75.2727 1.86962 70.5167 4.87774C65.7607 7.88586 62.4604 12.5661 61.2231 18.0586C59.9858 23.5511 60.9599 29.1948 63.9664 33.9562C64.5094 34.8161 65.1029 35.62 65.7439 36.3734L80.8628 7.61418L100.158 36.0261L99.8028 36.491C98.1736 38.6225 96.1861 40.4402 93.8991 41.8855C90.1453 44.2578 85.9547 45.3921 81.8118 45.3921L81.809 45.3949ZM66.914 37.6394C73.7247 44.4202 84.5691 45.8599 93.0257 40.5103C94.9852 39.2723 96.704 37.743 98.1456 35.9617L81.0364 10.7679L66.9112 37.6366L66.914 37.6394Z" fill="#DFD8CF"/>
<path d="M102.772 26.031L79.7288 26.0954L79.7333 27.7227L102.777 27.6583L102.772 26.031Z" fill="#DFD8CF"/>
<path d="M103.587 45.2773H58.449V0.113485H103.587V45.2773ZM60.0726 43.6528H101.961V1.74078H60.0726V43.6528Z" fill="#DFD8CF"/>
<path d="M8.80934 65.6031L17.1624 84.7162H13.8033L11.5246 79.4982H3.84621L1.68517 84.7162H0L8.80934 65.6031ZM4.23531 78.5543H11.1019L7.57485 70.4682L4.23531 78.5543Z" fill="#DFD8CF"/>
<path d="M21.4817 83.7527L31.3352 83.0105V84.6994L18.4109 84.7162V65.9925H21.4817V83.7527Z" fill="#DFD8CF"/>
<path d="M34.7615 65.5359L42.5239 78.8736L49.7292 65.5359L51.518 84.7162H48.4472L47.2827 72.356L41.309 82.7724L34.9462 72.356L34.2212 84.7162H32.5836L34.7615 65.5359Z" fill="#DFD8CF"/>
<path d="M61.1559 65.6031L69.5089 84.7162H66.1498L63.8712 79.4982H56.1928L54.0317 84.7162H52.3438L61.1531 65.6031H61.1559ZM56.5819 78.5543H63.4485L59.9214 70.4682L56.5819 78.5543Z" fill="#DFD8CF"/>
<path d="M74.9088 75.3109C74.9088 69.4179 79.1105 65.5359 84.9162 65.5359C87.4132 65.5359 89.7254 66.2613 91.3629 68.2359V71.6978C90.9738 70.2974 89.8429 68.8269 88.782 67.8662C87.7687 66.9531 86.4698 66.5162 85.1205 66.5162C82.9791 66.5162 81.1372 67.6646 79.8719 69.3535C78.573 71.0928 78.1335 73.1851 78.1335 75.3305C78.1335 80.092 80.5297 84.1448 85.7252 84.1448C86.9569 84.1448 87.9534 83.9095 89.0843 83.4194V76.9018L85.1373 77.5936V75.9047H92.2923L92.2755 82.8088C89.8121 84.5145 87.4159 85.1727 84.4291 85.1727C81.9658 85.1727 79.0461 84.058 77.3581 82.2346C75.7038 80.4449 74.9116 77.7112 74.9116 75.3137L74.9088 75.3109Z" fill="#DFD8CF"/>
<path d="M94.5345 84.733V66.0093H100.542C102.213 66.0093 103.951 66.0597 105.435 66.9391C107.019 67.883 107.965 69.4879 107.965 71.3449C107.965 73.5912 106.734 75.2269 104.676 76.0055C103.865 76.3108 102.921 76.4621 101.941 76.5293C102.364 76.6469 104.035 77.1707 104.186 77.2211L109.284 84.7162H105.351L100.323 76.5601C99.3633 76.5601 98.4339 76.5265 97.6081 76.5265L97.6249 84.7162L94.5373 84.733H94.5345ZM97.6053 66.9531V75.563H99.6796C102.582 75.563 104.657 74.4818 104.657 71.3085C104.657 68.32 102.412 66.9531 99.6796 66.9531H97.6053Z" fill="#DFD8CF"/>
<path d="M110.448 75.3781C110.448 69.4347 114.429 65.5359 120 65.5359C125.265 65.5359 129.534 69.4347 129.534 75.3781C129.534 81.3215 125.265 85.1699 120 85.1699C114.432 85.1699 110.448 81.2711 110.448 75.3781ZM120 84.2596C122.785 84.2596 126.225 82.1842 126.225 75.3781C126.225 68.572 122.782 66.5302 120 66.5302C117.368 66.5302 113.757 68.8437 113.757 75.3781C113.757 81.9125 117.368 84.2596 120 84.2596Z" fill="#DFD8CF"/>
<path d="M131.779 65.9925H134.85V78.165C134.85 80.935 136.081 83.9067 139.287 83.9067C143.455 83.9067 144.703 80.7502 144.619 77.0698L144.384 65.9953H146.072L145.733 77.3751C145.599 81.7977 143.488 85.1755 138.783 85.1755C134.077 85.1755 131.779 81.7473 131.779 77.2407V65.9925Z" fill="#DFD8CF"/>
<path d="M148.569 84.733V66.0093H154.576C156.281 66.0093 158.036 66.0597 159.537 66.9531C161.141 67.8998 162 69.6728 162 71.5129C162 76.5097 158.339 77.0502 154.322 77.0502H151.64L151.657 84.7162L148.569 84.733ZM151.64 66.9531V76.0195H152.704C153.767 76.0195 155.167 76.0195 156.163 75.6638C157.986 75.0056 158.694 73.2999 158.694 71.4765C158.694 68.3536 156.637 66.9531 153.717 66.9531H151.64Z" fill="#DFD8CF"/>
<path d="M38.0226 104.821V97.6589H40.5616C41.0599 97.6589 41.5329 97.7206 41.978 97.8466C42.4231 97.9726 42.8402 98.1659 43.2321 98.432C43.624 98.6981 43.9347 99.0734 44.1671 99.5551C44.3994 100.037 44.517 100.6 44.517 101.238C44.517 101.838 44.3994 102.376 44.1671 102.846C43.9347 103.319 43.624 103.695 43.2377 103.975C42.8514 104.255 42.4287 104.465 41.9752 104.608C41.5189 104.751 41.0487 104.821 40.5644 104.821H38.0226ZM39.2963 103.709H40.3572C40.6344 103.709 40.8975 103.686 41.1522 103.639C41.407 103.591 41.6561 103.51 41.9052 103.392C42.1544 103.275 42.3699 103.126 42.5463 102.947C42.7254 102.768 42.871 102.532 42.9802 102.238C43.0921 101.944 43.1481 101.614 43.1481 101.241C43.1481 99.5831 42.2188 98.7541 40.3572 98.7541H39.2963V103.712V103.709Z" fill="#DFD8CF"/>
<path d="M46.9691 104.821V97.6589H51.7111V98.7709H48.2428V100.591H51.5292V101.664H48.2428V103.686H51.8931V104.821H46.9691Z" fill="#DFD8CF"/>
<path d="M56.3019 104.821L53.4719 97.6589H54.8967L56.8674 103.171H56.9066L58.8997 97.6589H60.2741L57.4021 104.821H56.2991H56.3019Z" fill="#DFD8CF"/>
<path d="M62.186 104.821V97.6589H66.928V98.7709H63.4597V100.591H66.7461V101.664H63.4597V103.686H67.11V104.821H62.186Z" fill="#DFD8CF"/>
<path d="M69.5761 97.6589H70.8498V103.689H73.8926V104.824H69.5761V97.6589Z" fill="#DFD8CF"/>
<path d="M75.3203 101.219C75.3203 100.084 75.6786 99.1798 76.398 98.4964C77.1146 97.8158 78.0356 97.4741 79.1525 97.4741C80.2694 97.4741 81.2127 97.8158 81.9322 98.4964C82.6544 99.177 83.0155 100.084 83.0155 101.219C83.0155 102.353 82.6516 103.241 81.9294 103.944C81.2043 104.65 80.2806 105 79.1553 105C78.03 105 77.1258 104.647 76.4064 103.944C75.6842 103.238 75.3231 102.331 75.3231 101.219H75.3203ZM76.7059 101.219C76.7059 101.989 76.9354 102.619 77.3945 103.115C77.8536 103.611 78.4415 103.86 79.1637 103.86C79.8859 103.86 80.4849 103.614 80.944 103.115C81.4031 102.619 81.6326 101.986 81.6326 101.219C81.6326 100.451 81.4059 99.8464 80.9496 99.3479C80.4961 98.8493 79.8999 98.6 79.1637 98.6C78.4275 98.6 77.8452 98.8493 77.3889 99.3479C76.9326 99.8464 76.7059 100.471 76.7059 101.219Z" fill="#DFD8CF"/>
<path d="M85.4705 104.821V97.6589H87.8051C89.605 97.6589 90.5064 98.3508 90.5064 99.7316C90.5064 100.474 90.2488 101.014 89.7366 101.35C89.2243 101.689 88.5553 101.857 87.7239 101.857H86.7441V104.821H85.4705ZM86.7441 100.785H87.6343C88.6924 100.785 89.2215 100.435 89.2215 99.7316C89.2215 99.3479 89.0815 99.0846 88.8016 98.9417C88.5217 98.7989 88.1466 98.7289 87.6735 98.7289H86.7441V100.785Z" fill="#DFD8CF"/>
<path d="M92.8633 104.821V97.6589H94.8564L96.718 102.748H96.7488L98.5879 97.6589H100.589V104.821H99.3241V99.065H99.3045L97.1295 104.821H96.2393L94.095 99.065H94.0754V104.821H92.8633Z" fill="#DFD8CF"/>
<path d="M103.389 104.821V97.6589H108.131V98.7709H104.662V100.591H107.949V101.664H104.662V103.686H108.313V104.821H103.389Z" fill="#DFD8CF"/>
<path d="M110.779 104.821V97.6589H112.467L115.792 103.02H115.812V97.6589H117.086V104.821H115.468L112.069 99.2862H112.05V104.821H110.776H110.779Z" fill="#DFD8CF"/>
<path d="M121.335 104.821V98.7709H119.14V97.6589H124.803V98.7709H122.609V104.821H121.335Z" fill="#DFD8CF"/>
</svg>
