<svg width="45" height="51" viewBox="0 0 45 51" fill="none" xmlns="http://www.w3.org/2000/svg">
<path d="M0.503021 50.5H44.5M26.219 4.25831L23.503 0.971299C22.9834 0.3429 22.0166 0.3429 21.497 0.971299L16.3187 7.23716V34.6027L6.13746 50.497L28.6813 34.6027M16.3218 34.6057L38.8656 50.5L28.6843 34.6057V7.24018M44.5 14.4819C39.1375 9.46677 31.5634 6.61178 23.6269 6.61178H21.3731C13.4366 6.61178 5.86254 9.46677 0.5 14.4819H44.5ZM44.5 14.4819V17.8112M44.5 29.503C39.1375 24.4879 31.5634 21.6329 23.6269 21.6329H21.3731C13.4366 21.6329 5.86254 24.4879 0.5 29.503H44.5ZM44.5 29.503V32.8323M0.503021 29.503V32.8323M0.503021 14.4819V17.8112M8.68731 14.4819V17.8112M36.3157 14.4819V17.8112M8.68731 29.503V32.8323M36.3157 29.503V32.8323" stroke="#594537" stroke-linecap="round" stroke-linejoin="round"/>
</svg>
