<svg width="55" height="47" viewBox="0 0 55 47" fill="none" xmlns="http://www.w3.org/2000/svg">
<path d="M35.3495 1.78993C32.9919 1.35697 30.5828 3.39946 30.404 5.75063C30.3636 6.28212 30.5238 7.41532 30.299 7.83141C29.9423 8.49188 28.8973 8.39706 28.735 7.63056L28.7044 7.45861C28.3595 3.77999 30.6201 0.350862 34.4539 0.052151C37.3149 -0.417029 40.2031 2.36192 40.7526 5.0765C40.9202 5.90423 40.9578 6.87609 40.8999 7.72588C40.8408 8.58959 39.5509 8.61066 39.2558 7.86293C39.1064 7.4843 39.2407 6.29826 39.1815 5.80685C38.9349 3.75859 37.3801 2.12387 35.3494 1.78993H35.3495Z" fill="#594537"/>
<path d="M18.2198 1.78631L18.1087 1.77701C15.5906 1.59263 13.2818 3.50096 13.2039 6.08606C13.1888 6.58956 13.2541 7.11488 13.2083 7.61427C13.1346 8.41829 12.06 8.50999 11.6301 7.93685C11.3973 7.62653 11.4864 5.9095 11.5442 5.47769C11.9343 2.56078 14.2928 0.419182 17.169 0.0862283C19.9941 -0.133134 22.4393 1.53567 23.4523 4.1853C23.6768 4.77268 24.0936 7.30494 23.7815 7.92886C23.4598 8.57197 22.4242 8.43558 22.1955 7.7849C22.0302 7.31465 22.2981 6.13865 22.0604 5.37249C21.4605 3.43914 20.3247 2.1293 18.2198 1.78631Z" fill="#594537"/>
<path d="M35.988 29.2422L35.9908 30.4828C35.9907 30.8687 36.071 31.4376 35.817 31.755C35.3976 32.279 34.4477 32.0758 34.3329 31.3936C34.303 31.2153 34.3232 31.0171 34.3247 30.8363L34.3204 26.0036L18.5811 25.991C18.5101 26.2887 18.5648 26.7207 18.5648 27.0373L18.5637 29.9421C18.5632 30.3369 18.6946 31.2995 18.4702 31.6248L18.4446 31.6602C17.9178 32.4054 16.898 32.0811 16.8939 30.9646L16.8974 6.92959C16.898 6.02037 16.5534 4.61448 17.6708 4.33297C18.6122 4.31667 18.5721 4.9811 18.5701 5.66116L18.5704 13.9296L34.3252 13.9385L34.3283 6.07132C34.3286 5.75541 34.3053 5.42147 34.34 5.1081C34.4441 4.16941 35.9063 4.11328 35.9844 5.04983C36.0535 5.87855 35.9909 6.76505 35.9894 7.59945L35.988 29.2423V29.2422ZM18.5583 15.5861L18.5619 19.0962L34.3256 19.1046L34.3296 15.5926L18.5583 15.5861ZM18.5141 20.7545L18.5651 24.3204L34.3227 24.3277L34.3321 20.7796C34.1989 20.7028 33.7065 20.7552 33.5396 20.7549L18.5141 20.7544V20.7545Z" fill="#594537"/>
<path d="M32.1364 36.5135C29.6417 35.9291 28.1863 33.4604 25.6885 33.1564C22.5735 32.7774 20.8509 35.9738 18.0228 36.5455C14.175 37.3233 13.4206 34.0552 10.6757 33.4826C9.38396 33.2132 7.86647 34.0317 6.89948 34.8576C6.59035 35.1216 6.20413 35.6313 5.78944 35.6978C4.91062 35.8387 4.45042 34.9283 5.04981 34.2514C5.77534 33.4319 6.84838 32.7412 7.83161 32.2901C9.79012 31.3918 11.5563 31.5604 13.3367 32.8796C16.6736 35.3523 17.056 35.8859 20.9126 33.0431C22.1781 32.1101 23.3768 31.5424 24.9575 31.4364C28.6013 31.1759 29.642 33.9819 32.2379 34.7838C34.5371 35.4941 35.8699 34.3079 37.6148 33.2299C40.1423 31.6682 42.4014 32.4751 44.7263 33.9126C47.2626 35.4809 48.9127 35.1696 51.222 33.1945C51.4821 32.9721 51.7215 32.7217 51.9904 32.5107C52.6126 32.0224 53.5729 32.4241 53.3919 33.2928C53.2627 33.9124 51.59 35.0658 51.0629 35.4184C48.9188 36.8528 46.5278 37.0142 44.2941 35.6699C41.319 33.8794 40.4425 33.3284 37.5472 35.3056C35.8518 36.4633 34.1878 36.9068 32.1366 36.5136L32.1364 36.5135Z" fill="#594537"/>
<path d="M29.9602 40.9149C29.2276 40.473 28.5315 39.953 27.8857 39.3914C25.2855 37.1306 25.0495 37.1339 22.0504 39.3969C19.6712 41.1922 17.3276 42.7835 14.3618 41.0388L13.0584 40.1929C11.5489 39.2928 10.9472 39.8406 9.64946 40.4895C8.29731 41.1655 6.69361 41.4031 5.25805 40.8428C3.84718 40.2923 2.78431 39.0652 1.35137 38.6033C1.04503 38.5045 0.638635 38.4305 0.36896 38.2515C-0.377649 37.7557 0.112654 36.748 0.917332 36.7542C2.99362 36.7705 4.331 38.886 6.2508 39.3352C7.95267 39.7336 8.73906 38.9584 10.0636 38.3017C12.9727 36.8595 14.7333 40.3472 17.3256 40.0166C20.2749 39.6404 21.7909 36.4287 24.743 36.0021C29.1866 35.5936 30.3374 43.2074 36.7537 38.5196C38.4885 37.252 40.2201 36.4064 42.3366 37.5526C44.9492 38.9673 46.4845 41.3164 49.9253 39.2251C51.0943 38.5144 52.0589 37.5457 53.392 37.1107C55.1095 36.5503 55.416 38.0108 54.4794 38.5947C54.0401 38.8686 53.47 38.9357 53.0014 39.1854C52.309 39.5543 51.697 40.0588 51.0477 40.4951C48.9058 41.9342 46.4445 42.1955 44.17 40.7887C40.7683 38.6847 40.7942 37.7354 37.367 40.1355C34.9883 41.8012 32.6864 42.4184 29.9602 40.915V40.9149Z" fill="#594537"/>
<path d="M38.9467 44.1397C38.2468 44.4243 37.6717 44.8755 37.0616 45.3106C35.3645 46.5208 33.5426 47.281 31.4147 46.8313C28.9568 46.3118 27.421 43.9311 24.9172 43.6147C21.5677 43.1914 18.7457 49.443 13.6045 45.9177C10.6612 43.8995 10.5614 45.9436 9.33869 45.7532C7.37912 45.4481 10.0702 41.7247 14.0742 44.2076C14.6645 44.5737 15.1939 45.0055 15.8831 45.1664L16.0953 45.2101C19.4426 45.7082 20.8525 42.1033 24.2518 41.8628C25.6858 41.7759 27.0889 42.3475 28.2506 43.15C30.8921 44.9742 32.762 46.3923 35.9615 44.0795C37.367 43.0634 38.3218 42.2621 40.1318 42.2638C43.4323 42.2667 45.3729 45.999 48.8293 45.1141C50.1433 44.7777 51.2609 43.8857 52.5038 43.3602C53.2433 43.0475 54.5625 42.4269 54.9376 43.5131C55.2288 44.3564 54.2198 44.6113 53.6525 44.7696C52.2112 45.1716 51.0211 46.181 49.593 46.6333C44.3874 48.2817 42.5818 42.969 38.9468 44.1399L38.9467 44.1397Z" fill="#594537"/>
</svg>
