<svg width="46" height="51" viewBox="0 0 46 51" fill="none" xmlns="http://www.w3.org/2000/svg">
<path d="M21.7392 5.51527V0.5L33.5315 5.26653V26.4199M24.2581 23.5973V7.11312L12.4685 11.8824V26.4199M36.3758 14.0128L41.1996 15.708V23.8974M9.62419 17.6898L4.80043 19.385V23.8974M41.2375 26.2928L34.7679 29.0586C34.006 29.3831 33.1383 29.3533 32.4008 28.9775L27.1513 26.2928C26.0965 25.7521 24.8438 25.7575 23.7918 26.3009L17.8644 29.3669C17.3438 29.6372 16.9778 30.1266 16.872 30.7025C16.7012 31.6217 16.346 33.0844 15.679 34.274C15.359 34.8471 15.7088 35.5636 16.3541 35.6826L16.8774 35.7799C17.7966 35.9502 18.7294 35.5663 19.2608 34.7985L20.7386 32.6653L22.9078 31.9191C24.0087 34.812 27.5607 35.8799 30.0797 34.0712L30.7413 33.5954M16.9127 46.5269L19.5998 40.8411C19.9875 40.0192 19.635 39.0378 18.8107 38.6512C17.9864 38.2619 17.0022 38.616 16.6144 39.4379L13.9273 45.1237C13.5369 45.9456 13.8921 46.927 14.7164 47.3137C15.5407 47.703 16.5249 47.3488 16.9127 46.5269ZM16.9127 46.5269C16.5222 47.3488 16.8774 48.3302 17.7017 48.7169C18.526 49.1062 19.5103 48.752 19.898 47.9301L21.4355 44.6803C21.8259 43.8584 21.4707 42.877 20.6464 42.4904C19.8221 42.101 18.8379 42.4552 18.4501 43.2771L16.9127 46.5269ZM30.0716 36.9208L34.8465 39.2162C35.6708 39.6083 36.0206 40.5897 35.6274 41.4116C35.2343 42.2335 34.25 42.5823 33.4257 42.1903L31.1996 41.1331M31.2023 41.1331L35.2831 43.0716C36.1074 43.4637 36.4572 44.4451 36.064 45.267C35.6708 46.0889 34.6866 46.4377 33.8623 46.0457L29.7815 44.1071L32.0076 45.1643C32.8319 45.5563 33.1817 46.5377 32.7885 47.3596C32.3953 48.1815 31.4111 48.5303 30.5868 48.1383L28.3606 47.0812L28.9599 47.365C29.7842 47.7571 30.1339 48.7385 29.7408 49.5604C29.3476 50.3823 28.3633 50.7311 27.539 50.3391L23.3606 48.3275M37.9431 42.3498C39.3178 42.028 40.3427 41.0034 40.7251 39.7462C41.1426 38.3727 42.1025 37.2291 43.4311 36.6775L45.5 35.8178M4.76247 26.2928L11.2321 29.0586C11.994 29.3831 12.8617 29.3533 13.5992 28.9775L18.8487 26.2928M8.05694 42.3498C6.68221 42.028 5.65727 41.0034 5.27495 39.7462C4.85738 38.3727 3.89751 37.2291 2.56887 36.6775L0.5 35.8178M11.7283 45.9078C10.904 45.5211 10.5488 44.5397 10.9393 43.7178L12.4767 40.468C12.8644 39.6461 13.8487 39.2919 14.673 39.6813C15.4973 40.0679 15.8525 41.0493 15.462 41.8712L13.9246 45.121C13.5369 45.9429 12.5526 46.2971 11.7283 45.9078ZM20.6898 50.1201C19.8655 49.7334 19.5103 48.752 19.9008 47.9301L20.9094 45.7942C21.2972 44.9723 22.2815 44.6181 23.1057 45.0075C23.93 45.3941 24.2852 46.3755 23.8948 47.1974L22.8861 49.3333C22.4984 50.1552 21.5141 50.5094 20.6898 50.1201Z" stroke="#594537" stroke-linecap="round" stroke-linejoin="round"/>
</svg>
