<svg width="50" height="50" viewBox="0 0 50 50" fill="none" xmlns="http://www.w3.org/2000/svg">
<path d="M25 50C12.2464 50 1.87829 39.6244 1.87829 26.8826V8.0939C1.87829 7.77465 2.14125 7.51174 2.46056 7.51174H47.5394C47.8681 7.51174 48.1217 7.77465 48.1217 8.0939V26.8732C48.1217 39.6244 37.7442 49.9906 25 49.9906V50ZM3.05222 8.68545V26.8826C3.05222 38.9859 12.9038 48.8357 25.0094 48.8357C37.1149 48.8357 46.9666 38.9859 46.9666 26.8826V8.68545H3.05222Z" fill="#594537"/>
<path d="M49.4177 8.68545H0.582269C0.253569 8.68545 0 8.42253 0 8.10329V0.58216C0 0.262911 0.26296 0 0.582269 0H49.4177C49.7464 0 50 0.262911 50 0.58216V8.0939C50 8.41315 49.737 8.67606 49.4177 8.67606V8.68545ZM1.17393 7.51174H48.8355V1.17371H1.17393V7.51174Z" fill="#594537"/>
<path d="M25 42.4883C17.4305 42.4883 11.2697 36.3286 11.2697 28.7606C11.2697 21.1925 17.4305 15.0329 25 15.0329C32.5695 15.0329 38.7303 21.1925 38.7303 28.7606C38.7303 36.3286 32.5695 42.4883 25 42.4883ZM25 16.1972C18.0691 16.1972 12.4343 21.831 12.4343 28.7606C12.4343 35.6901 18.0691 41.3239 25 41.3239C31.9309 41.3239 37.5657 35.6901 37.5657 28.7606C37.5657 21.831 31.9309 16.1972 25 16.1972Z" fill="#594537"/>
<path d="M40.0263 17.6056C38.411 17.6056 37.0962 16.2911 37.0962 14.6761C37.0962 13.061 38.411 11.7465 40.0263 11.7465C41.6416 11.7465 42.9564 13.061 42.9564 14.6761C42.9564 16.2911 41.6416 17.6056 40.0263 17.6056ZM40.0263 12.9108C39.059 12.9108 38.2607 13.6995 38.2607 14.6761C38.2607 15.6526 39.0496 16.4413 40.0263 16.4413C41.003 16.4413 41.7919 15.6526 41.7919 14.6761C41.7919 13.6995 41.003 12.9108 40.0263 12.9108Z" fill="#594537"/>
<path d="M16.5477 29.3427C16.219 29.3427 15.9654 29.0798 15.9654 28.7606C15.9654 23.7746 20.0225 19.7277 25 19.7277C25.3287 19.7277 25.5823 19.9906 25.5823 20.3099C25.5823 20.6291 25.3193 20.892 25 20.892C20.6612 20.892 17.13 24.4225 17.13 28.7606C17.13 29.0798 16.867 29.3427 16.5477 29.3427Z" fill="#594537"/>
</svg>
