<svg width="43" height="50" viewBox="0 0 43 50" fill="none" xmlns="http://www.w3.org/2000/svg">
<path d="M5.50833 17.4943L5.40828 15.793C5.02812 15.7509 4.2938 15.9152 4.00967 15.6427C3.80758 15.4022 3.80558 15.0876 4.00967 14.8431L4.55391 14.6868L38.4367 14.6908C38.7909 14.7349 39.087 14.775 39.135 15.1777C39.2291 15.9873 38.1106 15.7769 37.5864 15.791L37.4863 17.4923H41.4341C41.5821 17.4923 42.2484 17.9051 42.3865 18.0394C43.643 19.2517 42.8427 21.404 41.1339 21.5963C40.4096 21.6785 36.5339 21.4701 36.3038 21.6124C34.5711 25.7625 31.0355 29.0109 26.8097 30.5178L28.7025 37.8983C28.8545 38.0305 31.7818 37.776 32.3201 37.9303C32.9323 38.1067 32.6802 39.0105 32.242 39.0105H28.9946L31.7718 49.2986L31.7458 49.7215L31.2596 50L30.7434 49.5211L27.9001 39.0565H15.1005L12.2573 49.5211C12.0252 50.0641 11.539 50.1723 11.2228 49.6493L14.006 39.0105H10.7586C10.3184 39.0105 10.0683 38.1067 10.6806 37.9303C11.2168 37.776 14.1441 38.0305 14.2982 37.8983L16.197 30.5659C16.143 30.4056 15.1826 30.1311 14.9405 30.0188C11.2989 28.3255 8.22552 25.3577 6.69685 21.6104C6.46675 21.4681 2.58905 21.6745 1.86673 21.5943C0.181996 21.404 -0.622356 19.3139 0.564164 18.0875C0.67021 17.9772 1.38652 17.4903 1.46656 17.4903H5.51433L5.50833 17.4943ZM36.5879 15.793H6.40672C6.89894 28.2173 21.3933 34.9124 31.1375 26.9007C34.393 24.2235 36.4419 20.0252 36.5879 15.793ZM1.96078 20.5984C3.18331 20.8008 4.92807 20.4481 6.20863 20.5984L5.64839 18.4902C4.5219 18.5824 3.26535 18.39 2.15686 18.4922C0.650201 18.6325 0.76225 20.4 1.96078 20.5984ZM36.788 20.5984H41.0359C41.1199 20.5984 41.6041 20.3459 41.6902 20.2517C42.1023 19.8008 42.0043 18.9672 41.4781 18.6546C40.7478 18.2197 38.2927 18.6586 37.3503 18.4902L36.79 20.5984H36.788ZM15.4027 37.9123H27.594L25.7932 30.9086C22.928 31.5378 20.1207 31.5819 17.2555 30.9026L15.4007 37.9143L15.4027 37.9123Z" fill="#594537"/>
<path d="M14.7704 0.00601178C15.7988 0.250491 14.9264 1.11819 14.8264 1.75544C14.5843 3.29847 16.109 4.60503 16.0049 6.64102C15.9209 8.30428 14.6203 9.46255 14.8284 10.9134C14.9004 11.4204 15.2106 11.757 15.3046 12.236C14.6343 13.4283 13.982 12.0797 13.826 11.3162C13.3858 9.14192 15.0505 8.19406 15.0045 6.24023C14.9685 4.73328 13.7219 3.7233 13.7239 2.23037C13.7239 1.67328 14.0781 0.0240471 14.7704 0.00400786V0.00601178Z" fill="#594537"/>
<path d="M28.3703 12.5666C27.8281 13.1117 27.3379 12.1819 27.1918 11.745C26.3535 9.25013 28.4104 8.26219 28.1943 5.93764C28.0742 4.64711 27.0818 3.80546 26.9937 2.53697C26.9357 1.72338 27.1598 0.388762 27.9622 0.00200393C29.0706 0.254499 28.0242 1.34664 28.0062 2.1422C27.9862 3.07002 28.5704 3.66318 28.8706 4.45874C29.2187 5.38055 29.3047 6.41257 29.1487 7.39249C28.9206 8.83732 27.634 9.6429 28.1422 11.2921C28.2483 11.6348 28.7565 12.1779 28.3703 12.5666Z" fill="#594537"/>
<path d="M21.3633 0C22.3517 0.272534 21.7254 0.819606 21.5453 1.3787C21.0211 3.01391 22.1056 3.61308 22.4477 4.98176C22.7119 6.03783 22.6618 7.10994 22.2997 8.13795C21.9375 9.16597 21.2812 9.6429 21.4253 10.8132C21.4933 11.3803 22.2016 12.262 21.6554 12.5967C21.0531 12.9654 20.707 12.1618 20.5529 11.6869C19.7686 9.26015 21.7474 8.2642 21.5974 6.03583C21.5093 4.7433 20.5169 3.87359 20.4008 2.73135C20.3108 1.85163 20.4489 0.400786 21.3653 0H21.3633Z" fill="#594537"/>
</svg>
