<svg width="50" height="50" viewBox="0 0 50 50" fill="none" xmlns="http://www.w3.org/2000/svg">
<path d="M49.4177 50H0.582269C0.26296 50 0 49.7371 0 49.4178C0 49.0986 0.26296 48.8357 0.582269 48.8357H49.4177C49.737 48.8357 50 49.0986 50 49.4178C50 49.7371 49.737 50 49.4177 50Z" fill="#594537"/>
<path d="M2.46056 50C2.14125 50 1.87829 49.7371 1.87829 49.4178V14.6667C1.87829 14.3474 2.14125 14.0845 2.46056 14.0845H15.6086C15.9279 14.0845 16.1908 14.3474 16.1908 14.6667V23.1174C16.1908 23.4366 15.9279 23.6995 15.6086 23.6995C15.2893 23.6995 15.0263 23.4366 15.0263 23.1174V15.2488H3.05222V49.4084C3.05222 49.7277 2.78926 49.9906 2.46995 49.9906L2.46056 50Z" fill="#594537"/>
<path d="M11.852 50C11.5327 50 11.2697 49.7371 11.2697 49.4178V26.8826C11.2697 26.6385 11.42 26.4131 11.6548 26.3286L21.9853 22.5728C22.2859 22.4601 22.624 22.6197 22.7367 22.9202C22.8494 23.2207 22.6897 23.5587 22.3892 23.6714L12.4437 27.2864V49.4084C12.4437 49.7277 12.1807 49.9906 11.8614 49.9906L11.852 50Z" fill="#594537"/>
<path d="M25 50C24.6807 50 24.4177 49.7371 24.4177 49.4178V0.58216C24.4177 0.262911 24.6807 0 25 0H38.148C38.4673 0 38.7303 0.262911 38.7303 0.58216V9.34272C38.7303 9.66197 38.4673 9.92488 38.148 9.92488C37.8287 9.92488 37.5657 9.66197 37.5657 9.34272V1.17371H25.5917V49.4178C25.5917 49.7371 25.3287 50 25.0094 50H25Z" fill="#594537"/>
<path d="M47.5394 50H34.3914C34.0721 50 33.8092 49.7371 33.8092 49.4178V14.6667C33.8092 14.4601 33.9219 14.2629 34.1003 14.1596L40.6743 10.4038C40.8527 10.3005 41.0781 10.3005 41.2566 10.4038L47.8306 14.1596C48.009 14.2629 48.1217 14.4601 48.1217 14.6667V49.4084C48.1217 49.7277 47.8587 49.9906 47.5394 49.9906V50ZM46.9572 48.8263V15.0141L40.9654 11.5962L34.9737 15.0141V48.8263H46.9572Z" fill="#594537"/>
<path d="M12.7911 15.2582H5.27799C4.95868 15.2582 4.69572 14.9953 4.69572 14.6761V10.9202C4.69572 10.6009 4.95868 10.338 5.27799 10.338H12.7911C13.1104 10.338 13.3734 10.6009 13.3734 10.9202V14.6761C13.3734 14.9953 13.1104 15.2582 12.7911 15.2582ZM5.86965 14.0845H12.2089V11.5023H5.86965V14.0845Z" fill="#594537"/>
<path d="M9.03456 11.5023C8.71525 11.5023 8.45229 11.2394 8.45229 10.9202V6.22535C8.45229 5.9061 8.71525 5.64319 9.03456 5.64319C9.35387 5.64319 9.61683 5.9061 9.61683 6.22535V10.9202C9.61683 11.2394 9.35387 11.5023 9.03456 11.5023Z" fill="#594537"/>
<path d="M35.3306 6.80751H27.8174C27.4981 6.80751 27.2352 6.5446 27.2352 6.22535C27.2352 5.9061 27.4981 5.64319 27.8174 5.64319H35.3306C35.6499 5.64319 35.9128 5.9061 35.9128 6.22535C35.9128 6.5446 35.6499 6.80751 35.3306 6.80751Z" fill="#594537"/>
<path d="M35.3306 11.5023H27.8174C27.4981 11.5023 27.2352 11.2394 27.2352 10.9202C27.2352 10.6009 27.4981 10.338 27.8174 10.338H35.3306C35.6499 10.338 35.9128 10.6009 35.9128 10.9202C35.9128 11.2394 35.6499 11.5023 35.3306 11.5023Z" fill="#594537"/>
<path d="M31.574 16.1972H27.8174C27.4981 16.1972 27.2352 15.9343 27.2352 15.615C27.2352 15.2958 27.4981 15.0329 27.8174 15.0329H31.574C31.8933 15.0329 32.1563 15.2958 32.1563 15.615C32.1563 15.9343 31.8933 16.1972 31.574 16.1972Z" fill="#594537"/>
<path d="M31.574 20.892H27.8174C27.4981 20.892 27.2352 20.6291 27.2352 20.3099C27.2352 19.9906 27.4981 19.7277 27.8174 19.7277H31.574C31.8933 19.7277 32.1563 19.9906 32.1563 20.3099C32.1563 20.6291 31.8933 20.892 31.574 20.892Z" fill="#594537"/>
<path d="M31.574 25.5869H27.8174C27.4981 25.5869 27.2352 25.3239 27.2352 25.0047C27.2352 24.6854 27.4981 24.4225 27.8174 24.4225H31.574C31.8933 24.4225 32.1563 24.6854 32.1563 25.0047C32.1563 25.3239 31.8933 25.5869 31.574 25.5869Z" fill="#594537"/>
<path d="M31.574 30.2817H27.8174C27.4981 30.2817 27.2352 30.0188 27.2352 29.6995C27.2352 29.3803 27.4981 29.1174 27.8174 29.1174H31.574C31.8933 29.1174 32.1563 29.3803 32.1563 29.6995C32.1563 30.0188 31.8933 30.2817 31.574 30.2817Z" fill="#594537"/>
<path d="M31.574 34.9765H27.8174C27.4981 34.9765 27.2352 34.7136 27.2352 34.3944C27.2352 34.0751 27.4981 33.8122 27.8174 33.8122H31.574C31.8933 33.8122 32.1563 34.0751 32.1563 34.3944C32.1563 34.7136 31.8933 34.9765 31.574 34.9765Z" fill="#594537"/>
<path d="M31.574 39.6714H27.8174C27.4981 39.6714 27.2352 39.4085 27.2352 39.0892C27.2352 38.77 27.4981 38.507 27.8174 38.507H31.574C31.8933 38.507 32.1563 38.77 32.1563 39.0892C32.1563 39.4085 31.8933 39.6714 31.574 39.6714Z" fill="#594537"/>
<path d="M31.574 44.3662H27.8174C27.4981 44.3662 27.2352 44.1033 27.2352 43.784C27.2352 43.4648 27.4981 43.2019 27.8174 43.2019H31.574C31.8933 43.2019 32.1563 43.4648 32.1563 43.784C32.1563 44.1033 31.8933 44.3662 31.574 44.3662Z" fill="#594537"/>
<path d="M38.6176 46.2441C38.2983 46.2441 38.0353 45.9812 38.0353 45.662V17.493C38.0353 17.1737 38.2983 16.9108 38.6176 16.9108C38.9369 16.9108 39.1999 17.1737 39.1999 17.493V45.662C39.1999 45.9812 38.9369 46.2441 38.6176 46.2441Z" fill="#594537"/>
<path d="M43.3133 46.2441C42.994 46.2441 42.731 45.9812 42.731 45.662V17.493C42.731 17.1737 42.994 16.9108 43.3133 16.9108C43.6326 16.9108 43.8956 17.1737 43.8956 17.493V45.662C43.8956 45.9812 43.6326 46.2441 43.3133 46.2441Z" fill="#594537"/>
<path d="M16.0781 46.2441C15.7588 46.2441 15.4959 45.9812 15.4959 45.662V29.6995C15.4959 29.3803 15.7588 29.1174 16.0781 29.1174C16.3974 29.1174 16.6604 29.3803 16.6604 29.6995V45.662C16.6604 45.9812 16.3974 46.2441 16.0781 46.2441Z" fill="#594537"/>
<path d="M20.7739 46.2441C20.4545 46.2441 20.1916 45.9812 20.1916 45.662V29.6995C20.1916 29.3803 20.4545 29.1174 20.7739 29.1174C21.0932 29.1174 21.3561 29.3803 21.3561 29.6995V45.662C21.3561 45.9812 21.0932 46.2441 20.7739 46.2441Z" fill="#594537"/>
<path d="M5.99174 19.9531H5.05259C4.73328 19.9531 4.47032 19.6901 4.47032 19.3709C4.47032 19.0516 4.73328 18.7887 5.05259 18.7887H5.99174C6.31104 18.7887 6.574 19.0516 6.574 19.3709C6.574 19.6901 6.31104 19.9531 5.99174 19.9531Z" fill="#594537"/>
<path d="M9.50413 19.9531H8.56499C8.24568 19.9531 7.98272 19.6901 7.98272 19.3709C7.98272 19.0516 8.24568 18.7887 8.56499 18.7887H9.50413C9.82344 18.7887 10.0864 19.0516 10.0864 19.3709C10.0864 19.6901 9.82344 19.9531 9.50413 19.9531Z" fill="#594537"/>
<path d="M13.0353 19.9531H12.0962C11.7769 19.9531 11.5139 19.6901 11.5139 19.3709C11.5139 19.0516 11.7769 18.7887 12.0962 18.7887H13.0353C13.3546 18.7887 13.6176 19.0516 13.6176 19.3709C13.6176 19.6901 13.3546 19.9531 13.0353 19.9531Z" fill="#594537"/>
<path d="M5.99174 23.7089H5.05259C4.73328 23.7089 4.47032 23.446 4.47032 23.1268C4.47032 22.8075 4.73328 22.5446 5.05259 22.5446H5.99174C6.31104 22.5446 6.574 22.8075 6.574 23.1268C6.574 23.446 6.31104 23.7089 5.99174 23.7089Z" fill="#594537"/>
<path d="M9.50413 23.7089H8.56499C8.24568 23.7089 7.98272 23.446 7.98272 23.1268C7.98272 22.8075 8.24568 22.5446 8.56499 22.5446H9.50413C9.82344 22.5446 10.0864 22.8075 10.0864 23.1268C10.0864 23.446 9.82344 23.7089 9.50413 23.7089Z" fill="#594537"/>
<path d="M13.0353 23.7089H12.0962C11.7769 23.7089 11.5139 23.446 11.5139 23.1268C11.5139 22.8075 11.7769 22.5446 12.0962 22.5446H13.0353C13.3546 22.5446 13.6176 22.8075 13.6176 23.1268C13.6176 23.446 13.3546 23.7089 13.0353 23.7089Z" fill="#594537"/>
<path d="M5.99174 27.4648H5.05259C4.73328 27.4648 4.47032 27.2019 4.47032 26.8826C4.47032 26.5634 4.73328 26.3005 5.05259 26.3005H5.99174C6.31104 26.3005 6.574 26.5634 6.574 26.8826C6.574 27.2019 6.31104 27.4648 5.99174 27.4648Z" fill="#594537"/>
<path d="M9.50413 27.4648H8.56499C8.24568 27.4648 7.98272 27.2019 7.98272 26.8826C7.98272 26.5634 8.24568 26.3005 8.56499 26.3005H9.50413C9.82344 26.3005 10.0864 26.5634 10.0864 26.8826C10.0864 27.2019 9.82344 27.4648 9.50413 27.4648Z" fill="#594537"/>
<path d="M5.99174 31.2207H5.05259C4.73328 31.2207 4.47032 30.9577 4.47032 30.6385C4.47032 30.3192 4.73328 30.0563 5.05259 30.0563H5.99174C6.31104 30.0563 6.574 30.3192 6.574 30.6385C6.574 30.9577 6.31104 31.2207 5.99174 31.2207Z" fill="#594537"/>
<path d="M9.50413 31.2207H8.56499C8.24568 31.2207 7.98272 30.9577 7.98272 30.6385C7.98272 30.3192 8.24568 30.0563 8.56499 30.0563H9.50413C9.82344 30.0563 10.0864 30.3192 10.0864 30.6385C10.0864 30.9577 9.82344 31.2207 9.50413 31.2207Z" fill="#594537"/>
<path d="M5.99174 34.9765H5.05259C4.73328 34.9765 4.47032 34.7136 4.47032 34.3944C4.47032 34.0751 4.73328 33.8122 5.05259 33.8122H5.99174C6.31104 33.8122 6.574 34.0751 6.574 34.3944C6.574 34.7136 6.31104 34.9765 5.99174 34.9765Z" fill="#594537"/>
<path d="M9.50413 34.9765H8.56499C8.24568 34.9765 7.98272 34.7136 7.98272 34.3944C7.98272 34.0751 8.24568 33.8122 8.56499 33.8122H9.50413C9.82344 33.8122 10.0864 34.0751 10.0864 34.3944C10.0864 34.7136 9.82344 34.9765 9.50413 34.9765Z" fill="#594537"/>
<path d="M5.99174 38.7324H5.05259C4.73328 38.7324 4.47032 38.4695 4.47032 38.1502C4.47032 37.831 4.73328 37.5681 5.05259 37.5681H5.99174C6.31104 37.5681 6.574 37.831 6.574 38.1502C6.574 38.4695 6.31104 38.7324 5.99174 38.7324Z" fill="#594537"/>
<path d="M9.50413 38.7324H8.56499C8.24568 38.7324 7.98272 38.4695 7.98272 38.1502C7.98272 37.831 8.24568 37.5681 8.56499 37.5681H9.50413C9.82344 37.5681 10.0864 37.831 10.0864 38.1502C10.0864 38.4695 9.82344 38.7324 9.50413 38.7324Z" fill="#594537"/>
<path d="M5.99174 42.4883H5.05259C4.73328 42.4883 4.47032 42.2254 4.47032 41.9061C4.47032 41.5869 4.73328 41.3239 5.05259 41.3239H5.99174C6.31104 41.3239 6.574 41.5869 6.574 41.9061C6.574 42.2254 6.31104 42.4883 5.99174 42.4883Z" fill="#594537"/>
<path d="M9.50413 42.4883H8.56499C8.24568 42.4883 7.98272 42.2254 7.98272 41.9061C7.98272 41.5869 8.24568 41.3239 8.56499 41.3239H9.50413C9.82344 41.3239 10.0864 41.5869 10.0864 41.9061C10.0864 42.2254 9.82344 42.4883 9.50413 42.4883Z" fill="#594537"/>
<path d="M5.99174 46.2441H5.05259C4.73328 46.2441 4.47032 45.9812 4.47032 45.662C4.47032 45.3427 4.73328 45.0798 5.05259 45.0798H5.99174C6.31104 45.0798 6.574 45.3427 6.574 45.662C6.574 45.9812 6.31104 46.2441 5.99174 46.2441Z" fill="#594537"/>
<path d="M9.50413 46.2441H8.56499C8.24568 46.2441 7.98272 45.9812 7.98272 45.662C7.98272 45.3427 8.24568 45.0798 8.56499 45.0798H9.50413C9.82344 45.0798 10.0864 45.3427 10.0864 45.662C10.0864 45.9812 9.82344 46.2441 9.50413 46.2441Z" fill="#594537"/>
</svg>
